<svg width="277" height="55" viewBox="0 0 277 55" fill="none" xmlns="http://www.w3.org/2000/svg">
  <path
    d="M11.52 42.033C11.52 43.2937 11.365 44.4303 11.055 45.443C10.745 46.4557 10.28 47.3185 9.65995 48.0315C9.05029 48.7445 8.28562 49.2922 7.36595 49.6745C6.44628 50.0568 5.37678 50.248 4.15745 50.248C3.59945 50.248 3.05178 50.2118 2.51445 50.1395C1.97712 50.0775 1.41395 49.9742 0.824951 49.8295C0.855951 49.4162 0.892118 49.0028 0.933451 48.5895C0.974784 48.1762 1.01095 47.7628 1.04195 47.3495C1.07295 47.1222 1.16078 46.9413 1.30545 46.807C1.46045 46.6623 1.67745 46.59 1.95645 46.59C2.13212 46.59 2.35945 46.6262 2.63845 46.6985C2.92778 46.7708 3.28945 46.807 3.72345 46.807C4.31245 46.807 4.83428 46.7243 5.28895 46.559C5.74362 46.3833 6.12078 46.1095 6.42045 45.7375C6.73045 45.3655 6.96295 44.885 7.11795 44.296C7.27295 43.6967 7.35045 42.9733 7.35045 42.126V27.587H11.52V42.033Z"
    fill="#404040" />
  <path
    d="M27.8088 41.537L25.0808 34.0815C24.9464 33.7508 24.8069 33.3582 24.6623 32.9035C24.5176 32.4488 24.3729 31.958 24.2283 31.431C24.0939 31.958 23.9544 32.454 23.8098 32.919C23.6651 33.3737 23.5256 33.7715 23.3913 34.1125L20.6788 41.537H27.8088ZM35.1713 50H31.9473C31.5856 50 31.2911 49.9122 31.0638 49.7365C30.8364 49.5505 30.6659 49.3232 30.5523 49.0545L28.8783 44.482H19.5938L17.9198 49.0545C17.8371 49.2922 17.6769 49.5092 17.4393 49.7055C17.2016 49.9018 16.9071 50 16.5558 50H13.3008L22.1203 27.587H26.3673L35.1713 50Z"
    fill="#404040" />
  <path
    d="M56.3857 27.587V50H54.2467C53.916 50 53.637 49.9483 53.4097 49.845C53.1927 49.7313 52.9808 49.5453 52.7742 49.287L41.0717 34.345C41.1337 35.027 41.1647 35.6573 41.1647 36.236V50H37.4912V27.587H39.6767C39.8523 27.587 40.0022 27.5973 40.1262 27.618C40.2605 27.6283 40.3742 27.6593 40.4672 27.711C40.5705 27.7523 40.6687 27.8195 40.7617 27.9125C40.8547 27.9952 40.958 28.1088 41.0717 28.2535L52.8207 43.2575C52.7897 42.8958 52.7638 42.5393 52.7432 42.188C52.7225 41.8367 52.7122 41.5112 52.7122 41.2115V27.587H56.3857Z"
    fill="#404040" />
  <path
    d="M79.8529 38.7625V47.83C78.7162 48.667 77.5021 49.2818 76.2104 49.6745C74.9291 50.0568 73.5547 50.248 72.0874 50.248C70.2584 50.248 68.5999 49.9638 67.1119 49.3955C65.6342 48.8272 64.3684 48.0367 63.3144 47.024C62.2707 46.0113 61.4647 44.8023 60.8964 43.397C60.3281 41.9917 60.0439 40.4572 60.0439 38.7935C60.0439 37.1092 60.3177 35.5643 60.8654 34.159C61.4131 32.7536 62.1881 31.5447 63.1904 30.532C64.2031 29.5193 65.4276 28.734 66.8639 28.176C68.3002 27.618 69.9122 27.339 71.6999 27.339C72.6092 27.339 73.4566 27.4113 74.2419 27.556C75.0376 27.7007 75.7712 27.9022 76.4429 28.1605C77.1249 28.4085 77.7449 28.7133 78.3029 29.075C78.8609 29.4367 79.3724 29.8345 79.8374 30.2685L78.6439 32.1595C78.4579 32.4592 78.2151 32.6452 77.9154 32.7175C77.6157 32.7795 77.2902 32.702 76.9389 32.485C76.5979 32.2887 76.2569 32.0923 75.9159 31.896C75.5749 31.6997 75.1926 31.5292 74.7689 31.3845C74.3556 31.2398 73.8854 31.121 73.3584 31.028C72.8417 30.935 72.2424 30.8885 71.5604 30.8885C70.4547 30.8885 69.4524 31.0745 68.5534 31.4465C67.6647 31.8185 66.9052 32.3507 66.2749 33.043C65.6446 33.7353 65.1589 34.5672 64.8179 35.5385C64.4769 36.5098 64.3064 37.5948 64.3064 38.7935C64.3064 40.0748 64.4872 41.2218 64.8489 42.2345C65.2209 43.2368 65.7376 44.0893 66.3989 44.792C67.0706 45.4843 67.8766 46.0165 68.8169 46.3885C69.7572 46.7502 70.8061 46.931 71.9634 46.931C72.7901 46.931 73.5289 46.8432 74.1799 46.6675C74.8309 46.4918 75.4664 46.2542 76.0864 45.9545V41.8935H73.2654C72.9967 41.8935 72.7849 41.8212 72.6299 41.6765C72.4852 41.5215 72.4129 41.3355 72.4129 41.1185V38.7625H79.8529Z"
    fill="#404040" />
  <path
    d="M109.884 38.7625V47.83C108.747 48.667 107.533 49.2818 106.242 49.6745C104.96 50.0568 103.586 50.248 102.119 50.248C100.29 50.248 98.6312 49.9638 97.1432 49.3955C95.6655 48.8272 94.3997 48.0367 93.3457 47.024C92.302 46.0113 91.496 44.8023 90.9277 43.397C90.3593 41.9917 90.0752 40.4572 90.0752 38.7935C90.0752 37.1092 90.349 35.5643 90.8967 34.159C91.4443 32.7536 92.2193 31.5447 93.2217 30.532C94.2343 29.5193 95.4588 28.734 96.8952 28.176C98.3315 27.618 99.9435 27.339 101.731 27.339C102.64 27.339 103.488 27.4113 104.273 27.556C105.069 27.7007 105.802 27.9022 106.474 28.1605C107.156 28.4085 107.776 28.7133 108.334 29.075C108.892 29.4367 109.404 29.8345 109.869 30.2685L108.675 32.1595C108.489 32.4592 108.246 32.6452 107.947 32.7175C107.647 32.7795 107.321 32.702 106.97 32.485C106.629 32.2887 106.288 32.0923 105.947 31.896C105.606 31.6997 105.224 31.5292 104.8 31.3845C104.387 31.2398 103.917 31.121 103.39 31.028C102.873 30.935 102.274 30.8885 101.592 30.8885C100.486 30.8885 99.4837 31.0745 98.5847 31.4465C97.696 31.8185 96.9365 32.3507 96.3062 33.043C95.6758 33.7353 95.1902 34.5672 94.8492 35.5385C94.5082 36.5098 94.3377 37.5948 94.3377 38.7935C94.3377 40.0748 94.5185 41.2218 94.8802 42.2345C95.2522 43.2368 95.7688 44.0893 96.4302 44.792C97.1018 45.4843 97.9078 46.0165 98.8482 46.3885C99.7885 46.7502 100.837 46.931 101.995 46.931C102.821 46.931 103.56 46.8432 104.211 46.6675C104.862 46.4918 105.498 46.2542 106.118 45.9545V41.8935H103.297C103.028 41.8935 102.816 41.8212 102.661 41.6765C102.516 41.5215 102.444 41.3355 102.444 41.1185V38.7625H109.884Z"
    fill="#404040" />
  <path
    d="M135.276 38.7935C135.276 40.4365 135.002 41.9607 134.454 43.366C133.917 44.761 133.152 45.97 132.16 46.993C131.168 48.016 129.975 48.8168 128.58 49.3955C127.185 49.9638 125.635 50.248 123.93 50.248C122.235 50.248 120.69 49.9638 119.295 49.3955C117.9 48.8168 116.702 48.016 115.699 46.993C114.707 45.97 113.937 44.761 113.39 43.366C112.842 41.9607 112.568 40.4365 112.568 38.7935C112.568 37.1505 112.842 35.6315 113.39 34.2365C113.937 32.8312 114.707 31.617 115.699 30.594C116.702 29.571 117.9 28.7753 119.295 28.207C120.69 27.6283 122.235 27.339 123.93 27.339C125.066 27.339 126.136 27.4733 127.138 27.742C128.141 28.0003 129.06 28.3723 129.897 28.858C130.734 29.3333 131.483 29.9172 132.145 30.6095C132.816 31.2915 133.385 32.0562 133.85 32.9035C134.315 33.7508 134.666 34.6705 134.904 35.6625C135.152 36.6545 135.276 37.6982 135.276 38.7935ZM131.013 38.7935C131.013 37.5638 130.848 36.4633 130.517 35.492C130.187 34.5103 129.716 33.6785 129.107 32.9965C128.497 32.3145 127.753 31.7927 126.875 31.431C126.007 31.0693 125.025 30.8885 123.93 30.8885C122.834 30.8885 121.848 31.0693 120.969 31.431C120.101 31.7927 119.357 32.3145 118.737 32.9965C118.128 33.6785 117.657 34.5103 117.327 35.492C116.996 36.4633 116.831 37.5638 116.831 38.7935C116.831 40.0232 116.996 41.1288 117.327 42.1105C117.657 43.0818 118.128 43.9085 118.737 44.5905C119.357 45.2622 120.101 45.7788 120.969 46.1405C121.848 46.5022 122.834 46.683 123.93 46.683C125.025 46.683 126.007 46.5022 126.875 46.1405C127.753 45.7788 128.497 45.2622 129.107 44.5905C129.716 43.9085 130.187 43.0818 130.517 42.1105C130.848 41.1288 131.013 40.0232 131.013 38.7935Z"
    fill="#404040" />
  <path
    d="M163.241 27.587V50H159.568V35.523C159.568 34.9443 159.599 34.3192 159.661 33.6475L152.887 46.373C152.567 46.9827 152.076 47.2875 151.415 47.2875H150.826C150.165 47.2875 149.674 46.9827 149.353 46.373L142.502 33.601C142.533 33.942 142.559 34.2778 142.58 34.6085C142.601 34.9392 142.611 35.244 142.611 35.523V50H138.937V27.587H142.084C142.27 27.587 142.43 27.5922 142.564 27.6025C142.699 27.6128 142.818 27.6387 142.921 27.68C143.035 27.7213 143.133 27.7885 143.215 27.8815C143.308 27.9745 143.396 28.0985 143.479 28.2535L150.19 40.7C150.366 41.0307 150.526 41.3717 150.671 41.723C150.826 42.0743 150.976 42.436 151.12 42.808C151.265 42.4257 151.415 42.0588 151.57 41.7075C151.725 41.3458 151.89 40.9997 152.066 40.669L158.684 28.2535C158.767 28.0985 158.855 27.9745 158.948 27.8815C159.041 27.7885 159.139 27.7213 159.242 27.68C159.356 27.6387 159.48 27.6128 159.614 27.6025C159.749 27.5922 159.909 27.587 160.095 27.587H163.241Z"
    fill="#404040" />
  <path
    d="M194.256 38.7625V47.83C193.12 48.667 191.905 49.2818 190.614 49.6745C189.332 50.0568 187.958 50.248 186.491 50.248C184.662 50.248 183.003 49.9638 181.515 49.3955C180.038 48.8272 178.772 48.0367 177.718 47.024C176.674 46.0113 175.868 44.8023 175.3 43.397C174.731 41.9917 174.447 40.4572 174.447 38.7935C174.447 37.1092 174.721 35.5643 175.269 34.159C175.816 32.7536 176.591 31.5447 177.594 30.532C178.606 29.5193 179.831 28.734 181.267 28.176C182.704 27.618 184.316 27.339 186.103 27.339C187.013 27.339 187.86 27.4113 188.645 27.556C189.441 27.7007 190.175 27.9022 190.846 28.1605C191.528 28.4085 192.148 28.7133 192.706 29.075C193.264 29.4367 193.776 29.8345 194.241 30.2685L193.047 32.1595C192.861 32.4592 192.618 32.6452 192.319 32.7175C192.019 32.7795 191.694 32.702 191.342 32.485C191.001 32.2887 190.66 32.0923 190.319 31.896C189.978 31.6997 189.596 31.5292 189.172 31.3845C188.759 31.2398 188.289 31.121 187.762 31.028C187.245 30.935 186.646 30.8885 185.964 30.8885C184.858 30.8885 183.856 31.0745 182.957 31.4465C182.068 31.8185 181.309 32.3507 180.678 33.043C180.048 33.7353 179.562 34.5672 179.221 35.5385C178.88 36.5098 178.71 37.5948 178.71 38.7935C178.71 40.0748 178.891 41.2218 179.252 42.2345C179.624 43.2368 180.141 44.0893 180.802 44.792C181.474 45.4843 182.28 46.0165 183.22 46.3885C184.161 46.7502 185.209 46.931 186.367 46.931C187.193 46.931 187.932 46.8432 188.583 46.6675C189.234 46.4918 189.87 46.2542 190.49 45.9545V41.8935H187.669C187.4 41.8935 187.188 41.8212 187.033 41.6765C186.889 41.5215 186.816 41.3355 186.816 41.1185V38.7625H194.256Z"
    fill="#404040" />
  <path d="M202.458 30.904V37.1195H210.301V40.328H202.458V46.6675H212.409V50H198.273V27.587H212.409V30.904H202.458Z"
    fill="#404040" />
  <path
    d="M225.125 46.6365C225.931 46.6365 226.65 46.5022 227.28 46.2335C227.921 45.9648 228.458 45.5877 228.892 45.102C229.326 44.6163 229.657 44.0273 229.884 43.335C230.122 42.6427 230.24 41.8677 230.24 41.01V27.587H234.41V41.01C234.41 42.343 234.193 43.5778 233.759 44.7145C233.335 45.8408 232.72 46.8173 231.914 47.644C231.119 48.4603 230.147 49.101 229 49.566C227.853 50.0207 226.562 50.248 225.125 50.248C223.679 50.248 222.382 50.0207 221.235 49.566C220.088 49.101 219.111 48.4603 218.305 47.644C217.51 46.8173 216.895 45.8408 216.461 44.7145C216.037 43.5778 215.825 42.343 215.825 41.01V27.587H219.995V40.9945C219.995 41.8522 220.109 42.6272 220.336 43.3195C220.574 44.0118 220.909 44.606 221.343 45.102C221.788 45.5877 222.325 45.9648 222.955 46.2335C223.596 46.5022 224.319 46.6365 225.125 46.6365Z"
    fill="#404040" />
  <path
    d="M258.007 27.587V50H255.868C255.537 50 255.258 49.9483 255.031 49.845C254.814 49.7313 254.602 49.5453 254.395 49.287L242.693 34.345C242.755 35.027 242.786 35.6573 242.786 36.236V50H239.112V27.587H241.298C241.473 27.587 241.623 27.5973 241.747 27.618C241.882 27.6283 241.995 27.6593 242.088 27.711C242.192 27.7523 242.29 27.8195 242.383 27.9125C242.476 27.9952 242.579 28.1088 242.693 28.2535L254.442 43.2575C254.411 42.8958 254.385 42.5393 254.364 42.188C254.344 41.8367 254.333 41.5112 254.333 41.2115V27.587H258.007Z"
    fill="#404040" />
  <path
    d="M275.682 28.5015C274.959 28.5015 274.406 28.7288 274.024 29.1835C273.641 29.6382 273.45 30.2633 273.45 31.059C273.45 31.6273 273.481 32.175 273.543 32.702C273.605 33.2187 273.667 33.725 273.729 34.221C273.801 34.7067 273.869 35.1871 273.931 35.6625C273.993 36.1378 274.024 36.6183 274.024 37.104C274.024 37.4863 273.967 37.8532 273.853 38.2045C273.75 38.5558 273.595 38.8762 273.388 39.1655C273.181 39.4548 272.928 39.708 272.629 39.925C272.339 40.142 272.009 40.3022 271.637 40.4055C272.009 40.5192 272.339 40.6845 272.629 40.9015C272.928 41.1082 273.181 41.3562 273.388 41.6455C273.595 41.9348 273.75 42.2552 273.853 42.6065C273.967 42.9578 274.024 43.3247 274.024 43.707C274.024 44.1927 273.993 44.6732 273.931 45.1485C273.869 45.6238 273.801 46.1095 273.729 46.6055C273.667 47.0912 273.605 47.5975 273.543 48.1245C273.481 48.6412 273.45 49.1837 273.45 49.752C273.45 50.5373 273.641 51.1573 274.024 51.612C274.406 52.0667 274.959 52.294 275.682 52.294H275.822C275.894 52.294 275.977 52.3095 276.07 52.3405C276.163 52.3715 276.25 52.418 276.333 52.48C276.426 52.542 276.498 52.6247 276.55 52.728C276.612 52.8313 276.643 52.9502 276.643 53.0845V54.774H275.822C274.85 54.774 274.003 54.6448 273.28 54.3865C272.567 54.1385 271.972 53.782 271.497 53.317C271.032 52.8623 270.686 52.3095 270.459 51.6585C270.231 51.0178 270.118 50.3048 270.118 49.5195C270.118 49.0132 270.149 48.5172 270.211 48.0315C270.283 47.5355 270.36 47.0447 270.443 46.559C270.536 46.0733 270.614 45.5877 270.676 45.102C270.748 44.6163 270.784 44.1307 270.784 43.645C270.784 43.0147 270.634 42.5032 270.335 42.1105C270.045 41.7075 269.575 41.506 268.924 41.506V39.2895C269.575 39.2895 270.045 39.0931 270.335 38.7005C270.634 38.2975 270.784 37.7808 270.784 37.1505C270.784 36.6648 270.748 36.1843 270.676 35.709C270.614 35.2233 270.536 34.7377 270.443 34.252C270.36 33.7663 270.283 33.2807 270.211 32.795C270.149 32.299 270.118 31.7978 270.118 31.2915C270.118 30.5062 270.231 29.7932 270.459 29.1525C270.686 28.5015 271.032 27.9435 271.497 27.4785C271.972 27.0135 272.567 26.657 273.28 26.409C274.003 26.1507 274.85 26.0215 275.822 26.0215H276.643V27.7265C276.643 27.8608 276.612 27.9797 276.55 28.083C276.498 28.176 276.426 28.2535 276.333 28.3155C276.25 28.3775 276.163 28.424 276.07 28.455C275.977 28.486 275.894 28.5015 275.822 28.5015H275.682Z"
    fill="#404040" />
  <path
    d="M102.293 6.527C102.437 6.671 102.491 6.788 102.455 6.878C102.437 6.968 102.383 7.004 102.293 6.986C102.059 6.986 101.798 7.013 101.51 7.067C101.24 7.103 100.943 7.139 100.619 7.175C100.313 7.193 99.9889 7.193 99.6469 7.175C99.3049 7.157 98.9629 7.094 98.6209 6.986C98.4769 6.842 98.4769 6.716 98.6209 6.608C98.7829 6.482 98.9089 6.302 98.9989 6.068C99.0529 5.906 99.1249 5.798 99.2149 5.744C99.3229 5.672 99.4309 5.627 99.5389 5.609C99.7369 5.609 99.9799 5.654 100.268 5.744C100.574 5.816 100.826 5.861 101.024 5.879C101.33 5.915 101.582 5.969 101.78 6.041C101.978 6.095 102.149 6.257 102.293 6.527ZM101.726 10.199C101.834 10.613 101.915 10.991 101.969 11.333C102.041 11.675 102.086 12.008 102.104 12.332C102.14 12.638 102.158 12.953 102.158 13.277C102.176 13.601 102.185 13.952 102.185 14.33C102.185 14.402 102.14 14.483 102.05 14.573C101.978 14.645 101.924 14.726 101.888 14.816C101.816 14.978 101.753 15.077 101.699 15.113C101.663 15.149 101.591 15.194 101.483 15.248C101.231 15.356 101.006 15.509 100.808 15.707C100.574 15.365 100.412 14.969 100.322 14.519C100.25 14.069 100.196 13.601 100.16 13.115C100.142 12.629 100.115 12.143 100.079 11.657C100.061 11.153 99.9979 10.667 99.8899 10.199C99.8359 9.947 99.8539 9.776 99.9439 9.686C100.034 9.596 100.133 9.533 100.241 9.497C100.367 9.461 100.502 9.488 100.646 9.578C100.808 9.668 100.961 9.758 101.105 9.848C101.231 9.92 101.348 9.965 101.456 9.983C101.582 9.983 101.672 10.055 101.726 10.199Z"
    fill="#404040" />
  <path
    d="M106.557 11.738C106.863 11.432 107.169 11.108 107.475 10.766C107.799 10.406 108.132 10.064 108.474 9.74C108.816 9.416 109.167 9.128 109.527 8.876C109.887 8.606 110.265 8.39 110.661 8.228C110.751 8.192 110.832 8.183 110.904 8.201C110.994 8.219 111.084 8.21 111.174 8.174C111.318 8.174 111.444 8.174 111.552 8.174C111.66 8.174 111.759 8.21 111.849 8.282C112.101 8.444 112.299 8.678 112.443 8.984C112.605 9.272 112.74 9.596 112.848 9.956C112.92 10.154 112.956 10.343 112.956 10.523C112.974 10.703 113.028 10.91 113.118 11.144C113.226 11.486 113.343 11.837 113.469 12.197C113.613 12.539 113.667 12.872 113.631 13.196C113.613 13.286 113.586 13.367 113.55 13.439C113.514 13.493 113.469 13.565 113.415 13.655C113.379 13.727 113.316 13.817 113.226 13.925C113.136 14.033 113.046 14.114 112.956 14.168C112.866 14.24 112.803 14.303 112.767 14.357C112.749 14.393 112.668 14.438 112.524 14.492C112.29 14.15 112.11 13.781 111.984 13.385C111.858 12.989 111.75 12.575 111.66 12.143C111.57 11.711 111.489 11.27 111.417 10.82C111.345 10.37 111.255 9.911 111.147 9.443C111.111 9.317 110.994 9.245 110.796 9.227C110.616 9.209 110.4 9.272 110.148 9.416C109.914 9.542 109.662 9.749 109.392 10.037C109.122 10.325 108.879 10.694 108.663 11.144C108.519 11.468 108.384 11.81 108.258 12.17C108.132 12.512 107.988 12.863 107.826 13.223C107.682 13.565 107.502 13.907 107.286 14.249C107.088 14.573 106.845 14.87 106.557 15.14C106.467 15.23 106.404 15.239 106.368 15.167C106.332 15.095 106.242 15.032 106.098 14.978C105.99 14.942 105.927 14.906 105.909 14.87C105.909 14.834 105.882 14.726 105.828 14.546C105.72 14.168 105.603 13.736 105.477 13.25C105.369 12.764 105.243 12.251 105.099 11.711C104.973 11.171 104.838 10.631 104.694 10.091C104.55 9.533 104.406 9.011 104.262 8.525L104.1 8.039C104.136 7.967 104.199 7.904 104.289 7.85C104.397 7.796 104.505 7.751 104.613 7.715C104.721 7.679 104.838 7.688 104.964 7.742C105.09 7.796 105.189 7.823 105.261 7.823C105.459 7.823 105.63 7.949 105.774 8.201C105.936 8.453 106.071 8.777 106.179 9.173C106.287 9.551 106.368 9.974 106.422 10.442C106.494 10.892 106.539 11.324 106.557 11.738Z"
    fill="#404040" />
  <path
    d="M125.035 9.443C125.071 9.479 125.098 9.497 125.116 9.497C125.134 9.497 125.143 9.515 125.143 9.551C125.125 9.587 125.08 9.632 125.008 9.686C124.954 9.722 124.846 9.749 124.684 9.767C124.63 9.785 124.558 9.821 124.468 9.875C124.378 9.911 124.306 9.938 124.252 9.956C123.766 10.064 123.19 10.163 122.524 10.253C121.876 10.343 121.201 10.424 120.499 10.496C120.463 11.126 120.445 11.711 120.445 12.251C120.463 12.791 120.49 13.259 120.526 13.655C120.562 13.961 120.706 14.114 120.958 14.114C121.21 14.096 121.471 14.042 121.741 13.952C121.813 13.934 122.002 13.853 122.308 13.709C122.632 13.547 123.001 13.367 123.415 13.169C123.847 12.953 124.297 12.728 124.765 12.494C125.233 12.242 125.656 12.017 126.034 11.819C126.034 12.071 125.899 12.314 125.629 12.548C125.485 12.674 125.323 12.791 125.143 12.899C124.981 13.007 124.81 13.124 124.63 13.25C124.432 13.376 124.297 13.511 124.225 13.655C124.153 13.799 123.991 13.952 123.739 14.114C123.271 14.42 122.767 14.699 122.227 14.951C121.687 15.203 121.201 15.383 120.769 15.491C120.625 15.527 120.472 15.545 120.31 15.545C120.166 15.545 120.022 15.572 119.878 15.626C119.662 15.716 119.491 15.698 119.365 15.572C119.257 15.446 119.185 15.266 119.149 15.032C119.077 14.366 119.023 13.655 118.987 12.899C118.969 12.143 118.969 11.378 118.987 10.604C118.447 10.64 117.943 10.658 117.475 10.658C117.025 10.64 116.656 10.604 116.368 10.55C116.098 10.514 115.846 10.46 115.612 10.388C115.396 10.298 115.198 10.163 115.018 9.983C114.856 9.983 114.802 9.911 114.856 9.767C114.928 9.605 114.982 9.47 115.018 9.362C115.396 9.344 115.945 9.326 116.665 9.308C117.403 9.272 118.195 9.236 119.041 9.2C119.113 7.706 119.239 6.32 119.419 5.042C119.599 3.764 119.815 2.81 120.067 2.18C120.067 2.018 120.13 1.91 120.256 1.856C120.4 1.784 120.544 1.703 120.688 1.613C120.76 1.577 120.832 1.532 120.904 1.478C120.994 1.406 121.111 1.37 121.255 1.37C121.417 1.46 121.534 1.541 121.606 1.613C121.678 1.667 121.714 1.739 121.714 1.829C121.714 1.919 121.687 2.027 121.633 2.153C121.579 2.279 121.516 2.441 121.444 2.639C121.408 2.693 121.354 2.918 121.282 3.314C121.21 3.71 121.129 4.214 121.039 4.826C120.967 5.42 120.886 6.104 120.796 6.878C120.706 7.634 120.634 8.399 120.58 9.173C121.174 9.173 121.741 9.182 122.281 9.2C122.821 9.2 123.298 9.218 123.712 9.254L125.035 9.443Z"
    fill="#404040" />
  <path
    d="M132.626 7.094C132.752 7.22 132.869 7.364 132.977 7.526C133.085 7.67 133.175 7.823 133.247 7.985C133.391 8.327 133.463 8.669 133.463 9.011C133.481 9.335 133.355 9.731 133.085 10.199C132.779 10.703 132.383 11.126 131.897 11.468C131.429 11.81 130.916 12.026 130.358 12.116C129.962 12.188 129.566 12.188 129.17 12.116C128.774 12.026 128.396 11.846 128.036 11.576C127.928 11.666 127.838 11.801 127.766 11.981C127.712 12.143 127.694 12.296 127.712 12.44C127.748 12.692 127.838 12.971 127.982 13.277C128.144 13.565 128.315 13.763 128.495 13.871C128.801 13.997 129.224 14.006 129.764 13.898C130.322 13.79 130.907 13.628 131.519 13.412C132.149 13.178 132.761 12.926 133.355 12.656C133.967 12.368 134.489 12.125 134.921 11.927C134.921 12.035 134.894 12.107 134.84 12.143C134.804 12.179 134.75 12.242 134.678 12.332C134.588 12.422 134.489 12.53 134.381 12.656C134.273 12.782 134.147 12.89 134.003 12.98C133.823 13.088 133.688 13.232 133.598 13.412C133.508 13.574 133.337 13.727 133.085 13.871C132.743 14.051 132.392 14.24 132.032 14.438C131.69 14.618 131.348 14.789 131.006 14.951C130.664 15.095 130.313 15.212 129.953 15.302C129.611 15.374 129.269 15.392 128.927 15.356C128.693 15.32 128.495 15.257 128.333 15.167C128.189 15.077 128.009 14.942 127.793 14.762C127.685 14.672 127.559 14.582 127.415 14.492C127.271 14.402 127.163 14.312 127.091 14.222C126.785 13.772 126.578 13.295 126.47 12.791C126.362 12.269 126.335 11.756 126.389 11.252C126.461 10.73 126.596 10.226 126.794 9.74C126.992 9.236 127.253 8.777 127.577 8.363C127.757 8.129 127.973 7.895 128.225 7.661C128.495 7.409 128.783 7.193 129.089 7.013C129.413 6.815 129.746 6.662 130.088 6.554C130.448 6.446 130.808 6.401 131.168 6.419C131.312 6.437 131.438 6.482 131.546 6.554C131.672 6.608 131.807 6.671 131.951 6.743C132.041 6.779 132.149 6.833 132.275 6.905C132.419 6.959 132.536 7.022 132.626 7.094ZM131.843 8.687C131.807 8.525 131.708 8.381 131.546 8.255C131.384 8.129 131.204 8.03 131.006 7.958C130.808 7.868 130.61 7.814 130.412 7.796C130.214 7.778 130.07 7.787 129.98 7.823C129.836 7.877 129.665 7.976 129.467 8.12C129.287 8.246 129.107 8.399 128.927 8.579C128.765 8.759 128.603 8.957 128.441 9.173C128.297 9.371 128.189 9.56 128.117 9.74C128.081 9.794 128.045 9.884 128.009 10.01C127.991 10.118 128 10.199 128.036 10.253C128.252 10.523 128.576 10.658 129.008 10.658C129.422 10.658 129.863 10.559 130.331 10.361C130.817 10.163 131.159 9.956 131.357 9.74C131.375 9.704 131.411 9.641 131.465 9.551C131.537 9.461 131.6 9.362 131.654 9.254C131.708 9.146 131.753 9.038 131.789 8.93C131.843 8.822 131.861 8.741 131.843 8.687Z"
    fill="#404040" />
  <path
    d="M143.833 6.689C143.833 6.851 143.86 7.058 143.914 7.31C143.968 7.544 143.95 7.733 143.86 7.877C143.824 7.913 143.806 7.985 143.806 8.093C143.806 8.183 143.779 8.246 143.725 8.282L143.374 8.066C143.086 7.922 142.762 7.859 142.402 7.877C142.06 7.895 141.709 7.976 141.349 8.12C141.097 8.228 140.845 8.381 140.593 8.579C140.359 8.759 140.134 8.966 139.918 9.2C139.702 9.434 139.504 9.677 139.324 9.929C139.144 10.181 138.991 10.424 138.865 10.658C138.577 11.18 138.433 11.81 138.433 12.548C138.451 13.286 138.721 14.24 139.243 15.41C139.243 15.536 139.153 15.689 138.973 15.869C138.937 15.905 138.892 15.959 138.838 16.031C138.784 16.103 138.739 16.157 138.703 16.193C138.559 16.319 138.469 16.427 138.433 16.517C138.415 16.607 138.361 16.67 138.271 16.706C138.127 16.76 137.992 16.634 137.866 16.328C137.56 15.788 137.263 15.131 136.975 14.357C136.705 13.565 136.444 12.755 136.192 11.927C135.958 11.099 135.742 10.307 135.544 9.551C135.364 8.777 135.22 8.129 135.112 7.607C135.058 7.463 135.049 7.328 135.085 7.202C135.121 7.058 135.175 6.941 135.247 6.851C135.301 6.779 135.364 6.761 135.436 6.797C135.526 6.833 135.598 6.851 135.652 6.851C135.886 6.851 136.03 6.896 136.084 6.986C136.138 7.076 136.228 7.193 136.354 7.337C136.606 7.625 136.804 8.012 136.948 8.498C137.092 8.984 137.272 9.56 137.488 10.226C137.776 9.74 138.145 9.272 138.595 8.822C139.063 8.372 139.567 7.967 140.107 7.607C140.647 7.229 141.205 6.923 141.781 6.689C142.357 6.455 142.915 6.311 143.455 6.257C143.563 6.239 143.653 6.275 143.725 6.365C143.815 6.437 143.851 6.545 143.833 6.689Z"
    fill="#404040" />
  <path
    d="M150.458 10.334C150.26 10.334 150.071 10.343 149.891 10.361C149.711 10.361 149.522 10.37 149.324 10.388C149.378 10.838 149.414 11.315 149.432 11.819C149.468 12.323 149.468 12.836 149.432 13.358C149.396 13.862 149.324 14.366 149.216 14.87C149.126 15.356 148.991 15.806 148.811 16.22C148.775 16.292 148.766 16.355 148.784 16.409C148.82 16.445 148.82 16.499 148.784 16.571C148.73 16.607 148.685 16.634 148.649 16.652C148.631 16.67 148.604 16.697 148.568 16.733C148.334 16.877 148.145 16.949 148.001 16.949C147.965 16.949 147.938 16.913 147.92 16.841C147.92 16.769 147.938 16.697 147.974 16.625C148.172 15.851 148.217 14.96 148.109 13.952C148.019 12.926 147.803 11.738 147.461 10.388C146.849 10.388 146.228 10.325 145.598 10.199C145.58 10.199 145.526 10.199 145.436 10.199C145.364 10.199 145.283 10.199 145.193 10.199C145.103 10.181 145.022 10.163 144.95 10.145C144.878 10.109 144.842 10.064 144.842 10.01C144.86 9.902 144.833 9.83 144.761 9.794C144.707 9.74 144.68 9.695 144.68 9.659C144.662 9.533 144.671 9.461 144.707 9.443C144.761 9.407 144.833 9.38 144.923 9.362C145.229 9.29 145.562 9.227 145.922 9.173C146.3 9.119 146.696 9.074 147.11 9.038C147.074 8.93 147.056 8.858 147.056 8.822C146.84 8.192 146.678 7.508 146.57 6.77C146.462 6.032 146.417 5.294 146.435 4.556C146.471 3.818 146.57 3.116 146.732 2.45C146.912 1.766 147.173 1.172 147.515 0.667996C147.641 0.487996 147.803 0.361997 148.001 0.289996C148.091 0.253996 148.181 0.217996 148.271 0.181996C148.379 0.145996 148.478 0.136996 148.568 0.154997C148.928 0.226997 149.252 0.352997 149.54 0.532997C149.828 0.694997 150.089 0.901997 150.323 1.154C150.575 1.388 150.809 1.658 151.025 1.964C151.241 2.252 151.448 2.549 151.646 2.855C151.808 3.053 151.808 3.206 151.646 3.314C151.484 3.422 151.34 3.521 151.214 3.611C151.07 3.719 150.908 3.773 150.728 3.773C150.602 3.737 150.476 3.656 150.35 3.53C150.224 3.404 150.071 3.296 149.891 3.206C149.801 3.116 149.684 3.008 149.54 2.882C149.396 2.738 149.243 2.612 149.081 2.504C148.919 2.396 148.766 2.306 148.622 2.234C148.478 2.162 148.361 2.144 148.271 2.18C148.217 2.216 148.136 2.324 148.028 2.504C147.938 2.684 147.866 2.846 147.812 2.99C147.686 3.386 147.668 3.755 147.758 4.097C147.974 4.961 148.19 5.807 148.406 6.635C148.622 7.445 148.838 8.174 149.054 8.822C149.054 8.876 149.063 8.921 149.081 8.957C149.783 8.957 150.467 9.011 151.133 9.119C151.817 9.209 152.438 9.362 152.996 9.578C153.086 9.614 153.005 9.713 152.753 9.875C152.609 9.965 152.474 10.01 152.348 10.01C152.24 9.992 152.114 10.01 151.97 10.064C151.718 10.154 151.466 10.217 151.214 10.253C150.962 10.289 150.71 10.316 150.458 10.334Z"
    fill="#404040" />
  <path
    d="M161.092 7.445C161.326 8.021 161.542 8.642 161.74 9.308C161.956 9.974 162.1 10.64 162.172 11.306C162.262 11.954 162.262 12.584 162.172 13.196C162.1 13.808 161.893 14.339 161.551 14.789C161.407 14.969 161.236 15.041 161.038 15.005C160.966 14.987 160.903 14.942 160.849 14.87C160.795 14.798 160.723 14.735 160.633 14.681C160.561 14.627 160.48 14.582 160.39 14.546C160.318 14.51 160.246 14.438 160.174 14.33C159.904 14.42 159.634 14.555 159.364 14.735C159.112 14.897 158.851 15.068 158.581 15.248C158.311 15.428 158.032 15.608 157.744 15.788C157.456 15.95 157.159 16.067 156.853 16.139C156.529 16.229 156.286 16.22 156.124 16.112C155.98 15.986 155.818 15.851 155.638 15.707C155.512 15.599 155.431 15.536 155.395 15.518C155.359 15.482 155.323 15.365 155.287 15.167C155.233 14.771 155.224 14.348 155.26 13.898C155.314 13.43 155.422 12.962 155.584 12.494C156.034 11.126 156.952 10.208 158.338 9.74C158.5 9.686 158.662 9.677 158.824 9.713C159.004 9.731 159.175 9.776 159.337 9.848C159.499 9.92 159.652 10.01 159.796 10.118C159.958 10.226 160.102 10.334 160.228 10.442L160.66 10.793C160.75 10.487 160.741 10.163 160.633 9.821C160.543 9.461 160.399 9.128 160.201 8.822C160.003 8.498 159.778 8.21 159.526 7.958C159.274 7.706 159.031 7.535 158.797 7.445C157.879 7.445 157.051 7.661 156.313 8.093C155.593 8.507 154.891 9.056 154.207 9.74C154.171 9.776 154.126 9.803 154.072 9.821C154.036 9.839 154 9.857 153.964 9.875C153.91 9.911 153.847 9.92 153.775 9.902C153.721 9.884 153.712 9.83 153.748 9.74C153.856 9.164 154.072 8.651 154.396 8.201C154.72 7.733 155.098 7.328 155.53 6.986C155.962 6.644 156.421 6.356 156.907 6.122C157.393 5.888 157.87 5.717 158.338 5.609C158.41 5.573 158.473 5.555 158.527 5.555C158.599 5.537 158.68 5.528 158.77 5.528C158.896 5.528 159.013 5.564 159.121 5.636C159.229 5.708 159.355 5.789 159.499 5.879C159.679 5.969 159.859 6.077 160.039 6.203C160.219 6.311 160.381 6.446 160.525 6.608C160.651 6.752 160.759 6.896 160.849 7.04C160.939 7.184 161.02 7.319 161.092 7.445ZM160.174 12.251C160.066 12.017 159.895 11.801 159.661 11.603C159.445 11.405 159.193 11.261 158.905 11.171C158.617 11.063 158.302 11.036 157.96 11.09C157.636 11.144 157.303 11.306 156.961 11.576C156.853 11.81 156.745 12.071 156.637 12.359C156.529 12.629 156.448 12.908 156.394 13.196C156.34 13.466 156.313 13.745 156.313 14.033C156.331 14.303 156.394 14.555 156.502 14.789C157.186 14.555 157.852 14.285 158.5 13.979C159.148 13.673 159.706 13.403 160.174 13.169C160.282 13.061 160.345 12.971 160.363 12.899C160.381 12.827 160.372 12.764 160.336 12.71C160.318 12.656 160.282 12.593 160.228 12.521C160.192 12.449 160.174 12.359 160.174 12.251Z"
    fill="#404040" />
  <path
    d="M170.038 8.822C170.092 8.912 170.11 9.002 170.092 9.092C170.092 9.164 170.083 9.227 170.065 9.281C169.921 9.443 169.804 9.551 169.714 9.605C169.624 9.659 169.471 9.74 169.255 9.848C169.201 9.884 169.147 9.92 169.093 9.956C169.057 9.992 169.012 10.01 168.958 10.01C168.868 10.01 168.724 9.938 168.526 9.794C168.346 9.65 168.148 9.506 167.932 9.362C167.716 9.218 167.482 9.11 167.23 9.038C166.996 8.966 166.78 8.993 166.582 9.119C166.384 9.389 166.195 9.74 166.015 10.172C165.835 10.586 165.691 11.027 165.583 11.495C165.493 11.963 165.466 12.44 165.502 12.926C165.538 13.412 165.682 13.862 165.934 14.276C166.978 14.384 167.905 14.213 168.715 13.763C169.525 13.295 170.272 12.719 170.956 12.035C170.956 12.161 170.92 12.278 170.848 12.386C170.794 12.476 170.74 12.575 170.686 12.683C170.614 12.845 170.533 13.007 170.443 13.169C170.371 13.313 170.263 13.457 170.119 13.601C169.867 13.871 169.579 14.132 169.255 14.384C168.949 14.636 168.616 14.861 168.256 15.059C167.914 15.239 167.554 15.383 167.176 15.491C166.816 15.581 166.456 15.608 166.096 15.572C165.898 15.554 165.754 15.509 165.664 15.437C165.592 15.347 165.457 15.257 165.259 15.167C165.151 15.095 165.007 15.032 164.827 14.978C164.665 14.924 164.539 14.852 164.449 14.762C164.269 14.546 164.134 14.285 164.044 13.979C163.918 13.583 163.855 13.151 163.855 12.683C163.855 12.215 163.882 11.765 163.936 11.333C164.008 10.883 164.098 10.478 164.206 10.118C164.332 9.758 164.44 9.479 164.53 9.281C164.638 9.047 164.8 8.849 165.016 8.687C165.232 8.507 165.466 8.345 165.718 8.201C165.988 8.057 166.258 7.922 166.528 7.796C166.798 7.67 167.05 7.553 167.284 7.445C168.202 7.445 169.12 7.904 170.038 8.822Z"
    fill="#404040" />
  <path
    d="M178.479 7.094C178.605 7.22 178.722 7.364 178.83 7.526C178.938 7.67 179.028 7.823 179.1 7.985C179.244 8.327 179.316 8.669 179.316 9.011C179.334 9.335 179.208 9.731 178.938 10.199C178.632 10.703 178.236 11.126 177.75 11.468C177.282 11.81 176.769 12.026 176.211 12.116C175.815 12.188 175.419 12.188 175.023 12.116C174.627 12.026 174.249 11.846 173.889 11.576C173.781 11.666 173.691 11.801 173.619 11.981C173.565 12.143 173.547 12.296 173.565 12.44C173.601 12.692 173.691 12.971 173.835 13.277C173.997 13.565 174.168 13.763 174.348 13.871C174.654 13.997 175.077 14.006 175.617 13.898C176.175 13.79 176.76 13.628 177.372 13.412C178.002 13.178 178.614 12.926 179.208 12.656C179.82 12.368 180.342 12.125 180.774 11.927C180.774 12.035 180.747 12.107 180.693 12.143C180.657 12.179 180.603 12.242 180.531 12.332C180.441 12.422 180.342 12.53 180.234 12.656C180.126 12.782 180 12.89 179.856 12.98C179.676 13.088 179.541 13.232 179.451 13.412C179.361 13.574 179.19 13.727 178.938 13.871C178.596 14.051 178.245 14.24 177.885 14.438C177.543 14.618 177.201 14.789 176.859 14.951C176.517 15.095 176.166 15.212 175.806 15.302C175.464 15.374 175.122 15.392 174.78 15.356C174.546 15.32 174.348 15.257 174.186 15.167C174.042 15.077 173.862 14.942 173.646 14.762C173.538 14.672 173.412 14.582 173.268 14.492C173.124 14.402 173.016 14.312 172.944 14.222C172.638 13.772 172.431 13.295 172.323 12.791C172.215 12.269 172.188 11.756 172.242 11.252C172.314 10.73 172.449 10.226 172.647 9.74C172.845 9.236 173.106 8.777 173.43 8.363C173.61 8.129 173.826 7.895 174.078 7.661C174.348 7.409 174.636 7.193 174.942 7.013C175.266 6.815 175.599 6.662 175.941 6.554C176.301 6.446 176.661 6.401 177.021 6.419C177.165 6.437 177.291 6.482 177.399 6.554C177.525 6.608 177.66 6.671 177.804 6.743C177.894 6.779 178.002 6.833 178.128 6.905C178.272 6.959 178.389 7.022 178.479 7.094ZM177.696 8.687C177.66 8.525 177.561 8.381 177.399 8.255C177.237 8.129 177.057 8.03 176.859 7.958C176.661 7.868 176.463 7.814 176.265 7.796C176.067 7.778 175.923 7.787 175.833 7.823C175.689 7.877 175.518 7.976 175.32 8.12C175.14 8.246 174.96 8.399 174.78 8.579C174.618 8.759 174.456 8.957 174.294 9.173C174.15 9.371 174.042 9.56 173.97 9.74C173.934 9.794 173.898 9.884 173.862 10.01C173.844 10.118 173.853 10.199 173.889 10.253C174.105 10.523 174.429 10.658 174.861 10.658C175.275 10.658 175.716 10.559 176.184 10.361C176.67 10.163 177.012 9.956 177.21 9.74C177.228 9.704 177.264 9.641 177.318 9.551C177.39 9.461 177.453 9.362 177.507 9.254C177.561 9.146 177.606 9.038 177.642 8.93C177.696 8.822 177.714 8.741 177.696 8.687Z"
    fill="#404040" />
</svg>