<svg width="180" height="37" viewBox="0 0 180 37" fill="none" xmlns="http://www.w3.org/2000/svg">
<path d="M5.75801 4.82408V12.0421H14.866V15.7681H5.75801V23.1301H17.314V27.0001H0.89801V0.97208H17.314V4.82408H5.75801Z" fill="#404040"/>
<path d="M42.755 27.0001H37.931C37.595 27.0001 37.325 26.9161 37.121 26.7481C36.929 26.5801 36.773 26.3881 36.653 26.1721L30.623 16.1821C30.527 16.4821 30.413 16.7401 30.281 16.9561L24.503 26.1721C24.359 26.3761 24.191 26.5681 23.999 26.7481C23.819 26.9161 23.579 27.0001 23.279 27.0001H18.761L27.401 13.6081L19.103 0.97208H23.927C24.263 0.97208 24.503 1.02008 24.647 1.11608C24.803 1.20008 24.947 1.34408 25.079 1.54808L31.001 11.0881C31.121 10.7881 31.265 10.4881 31.433 10.1881L36.869 1.63808C37.001 1.41008 37.145 1.24208 37.301 1.13408C37.457 1.02608 37.655 0.97208 37.895 0.97208H42.521L34.151 13.4101L42.755 27.0001Z" fill="#404040"/>
<path d="M54.2174 14.0581C55.1054 14.0581 55.8794 13.9501 56.5394 13.7341C57.1994 13.5061 57.7454 13.1881 58.1774 12.7801C58.6214 12.3601 58.9514 11.8561 59.1674 11.2681C59.3834 10.6681 59.4914 10.0021 59.4914 9.27008C59.4914 8.57408 59.3834 7.94408 59.1674 7.38008C58.9514 6.81608 58.6274 6.33608 58.1954 5.94008C57.7634 5.54408 57.2174 5.24408 56.5574 5.04008C55.8974 4.82408 55.1174 4.71608 54.2174 4.71608H50.5994V14.0581H54.2174ZM54.2174 0.97208C55.9574 0.97208 57.4634 1.17608 58.7354 1.58408C60.0074 1.99208 61.0574 2.56208 61.8854 3.29408C62.7134 4.02608 63.3254 4.90208 63.7214 5.92208C64.1294 6.94208 64.3334 8.05808 64.3334 9.27008C64.3334 10.5301 64.1234 11.6881 63.7034 12.7441C63.2834 13.7881 62.6534 14.6881 61.8134 15.4441C60.9734 16.2001 59.9174 16.7881 58.6454 17.2081C57.3854 17.6281 55.9094 17.8381 54.2174 17.8381H50.5994V27.0001H45.7574V0.97208H54.2174Z" fill="#404040"/>
<path d="M72.9064 4.82408V12.0421H82.0145V15.7681H72.9064V23.1301H84.4624V27.0001H68.0464V0.97208H84.4624V4.82408H72.9064Z" fill="#404040"/>
<path d="M96.6195 13.3561C97.5315 13.3561 98.3235 13.2421 98.9955 13.0141C99.6795 12.7861 100.237 12.4741 100.669 12.0781C101.113 11.6701 101.443 11.1901 101.659 10.6381C101.875 10.0861 101.983 9.48008 101.983 8.82008C101.983 7.50008 101.545 6.48608 100.669 5.77808C99.8055 5.07008 98.4795 4.71608 96.6915 4.71608H93.5955V13.3561H96.6195ZM109.075 27.0001H104.701C103.873 27.0001 103.273 26.6761 102.901 26.0281L97.4295 17.6941C97.2255 17.3821 96.9975 17.1601 96.7455 17.0281C96.5055 16.8961 96.1455 16.8301 95.6655 16.8301H93.5955V27.0001H88.7535V0.97208H96.6915C98.4555 0.97208 99.9675 1.15808 101.227 1.53008C102.499 1.89008 103.537 2.40008 104.341 3.06008C105.157 3.72008 105.757 4.51208 106.141 5.43608C106.525 6.34808 106.717 7.35608 106.717 8.46008C106.717 9.33608 106.585 10.1641 106.321 10.9441C106.069 11.7241 105.697 12.4321 105.205 13.0681C104.725 13.7041 104.125 14.2621 103.405 14.7421C102.697 15.2221 101.887 15.6001 100.975 15.8761C101.287 16.0561 101.575 16.2721 101.839 16.5241C102.103 16.7641 102.343 17.0521 102.559 17.3881L109.075 27.0001Z" fill="#404040"/>
<path d="M129.398 4.95008H121.55V27.0001H116.708V4.95008H108.86V0.97208H129.398V4.95008Z" fill="#404040"/>
<path d="M137.664 27.0001H132.804V0.97208H137.664V27.0001Z" fill="#404040"/>
<path d="M157.352 5.70608C157.208 5.95808 157.052 6.14408 156.884 6.26408C156.728 6.37208 156.53 6.42608 156.29 6.42608C156.038 6.42608 155.762 6.33608 155.462 6.15608C155.174 5.96408 154.826 5.75408 154.418 5.52608C154.01 5.29808 153.53 5.09408 152.978 4.91408C152.438 4.72208 151.796 4.62608 151.052 4.62608C150.38 4.62608 149.792 4.71008 149.288 4.87808C148.784 5.03408 148.358 5.25608 148.01 5.54408C147.674 5.83208 147.422 6.18008 147.254 6.58808C147.086 6.98408 147.002 7.42208 147.002 7.90208C147.002 8.51408 147.17 9.02408 147.506 9.43208C147.854 9.84008 148.31 10.1881 148.874 10.4761C149.438 10.7641 150.08 11.0221 150.8 11.2501C151.52 11.4781 152.258 11.7241 153.014 11.9881C153.77 12.2401 154.508 12.5401 155.228 12.8881C155.948 13.2241 156.59 13.6561 157.154 14.1841C157.718 14.7001 158.168 15.3361 158.504 16.0921C158.852 16.8481 159.026 17.7661 159.026 18.8461C159.026 20.0221 158.822 21.1261 158.414 22.1581C158.018 23.1781 157.43 24.0721 156.65 24.8401C155.882 25.5961 154.94 26.1961 153.824 26.6401C152.708 27.0721 151.43 27.2881 149.99 27.2881C149.162 27.2881 148.346 27.2041 147.542 27.0361C146.738 26.8801 145.964 26.6521 145.22 26.3521C144.488 26.0521 143.798 25.6921 143.15 25.2721C142.502 24.8521 141.926 24.3841 141.422 23.8681L142.844 21.5461C142.964 21.3781 143.12 21.2401 143.312 21.1321C143.504 21.0121 143.708 20.9521 143.924 20.9521C144.224 20.9521 144.548 21.0781 144.896 21.3301C145.244 21.5701 145.658 21.8401 146.138 22.1401C146.618 22.4401 147.176 22.7161 147.812 22.9681C148.46 23.2081 149.234 23.3281 150.134 23.3281C151.514 23.3281 152.582 23.0041 153.338 22.3561C154.094 21.6961 154.472 20.7541 154.472 19.5301C154.472 18.8461 154.298 18.2881 153.95 17.8561C153.614 17.4241 153.164 17.0641 152.6 16.7761C152.036 16.4761 151.394 16.2241 150.674 16.0201C149.954 15.8161 149.222 15.5941 148.478 15.3541C147.734 15.1141 147.002 14.8261 146.282 14.4901C145.562 14.1541 144.92 13.7161 144.356 13.1761C143.792 12.6361 143.336 11.9641 142.988 11.1601C142.652 10.3441 142.484 9.34208 142.484 8.15408C142.484 7.20608 142.67 6.28208 143.042 5.38208C143.426 4.48208 143.978 3.68408 144.698 2.98808C145.418 2.29208 146.306 1.73408 147.362 1.31408C148.418 0.894082 149.63 0.684082 150.998 0.684082C152.534 0.684082 153.95 0.924082 155.246 1.40408C156.542 1.88408 157.646 2.55608 158.558 3.42008L157.352 5.70608Z" fill="#404040"/>
<path d="M168.11 4.82408V12.0421H177.218V15.7681H168.11V23.1301H179.666V27.0001H163.25V0.97208H179.666V4.82408H168.11Z" fill="#404040"/>
<path d="M1.00001 34.0001H180V37.0001H1.00001V34.0001Z" fill="#404040"/>
</svg>
