<svg width="718" height="92" viewBox="0 0 718 92" fill="none" xmlns="http://www.w3.org/2000/svg">
<path d="M19.0865 8.2593V26.9998H15.7935V8.2593H19.0865ZM19.7895 2.3763C19.7895 2.69697 19.7217 2.99913 19.586 3.2828C19.4627 3.55413 19.29 3.8008 19.068 4.0228C18.8583 4.23247 18.6055 4.39897 18.3095 4.5223C18.0258 4.64564 17.7237 4.7073 17.403 4.7073C17.0823 4.7073 16.7802 4.64564 16.4965 4.5223C16.2252 4.39897 15.9847 4.23247 15.775 4.0228C15.5653 3.8008 15.3988 3.55413 15.2755 3.2828C15.1522 2.99913 15.0905 2.69697 15.0905 2.3763C15.0905 2.05563 15.1522 1.75347 15.2755 1.4698C15.3988 1.1738 15.5653 0.920968 15.775 0.711301C15.9847 0.489302 16.2252 0.316635 16.4965 0.193301C16.7802 0.0699674 17.0823 0.00830078 17.403 0.00830078C17.7237 0.00830078 18.0258 0.0699674 18.3095 0.193301C18.6055 0.316635 18.8583 0.489302 19.068 0.711301C19.29 0.920968 19.4627 1.1738 19.586 1.4698C19.7217 1.75347 19.7895 2.05563 19.7895 2.3763Z" fill="#404040"/>
<path d="M27.6052 10.9788C28.0122 10.5225 28.4438 10.1093 28.9002 9.7393C29.3565 9.3693 29.8375 9.0548 30.3432 8.7958C30.8612 8.52447 31.4038 8.32097 31.9712 8.1853C32.5508 8.0373 33.1737 7.9633 33.8397 7.9633C34.8633 7.9633 35.7637 8.13597 36.5407 8.4813C37.33 8.8143 37.9837 9.2953 38.5017 9.9243C39.032 10.541 39.4328 11.2871 39.7042 12.1628C39.9755 13.0385 40.1112 14.0066 40.1112 15.0673V26.9998H36.7997V15.0673C36.7997 13.649 36.4728 12.5513 35.8192 11.7743C35.1778 10.985 34.1973 10.5903 32.8777 10.5903C31.9033 10.5903 30.9907 10.8246 30.1397 11.2933C29.301 11.762 28.524 12.3971 27.8087 13.1988V26.9998H24.4972V8.2593H26.4767C26.9453 8.2593 27.2352 8.48747 27.3462 8.9438L27.6052 10.9788Z" fill="#404040"/>
<path d="M50.6296 27.2958C49.1496 27.2958 48.0087 26.8826 47.2071 26.0563C46.4177 25.23 46.0231 24.0398 46.0231 22.4858V11.0158H43.7661C43.5687 11.0158 43.4022 10.9603 43.2666 10.8493C43.1309 10.726 43.0631 10.541 43.0631 10.2943V8.9808L46.1341 8.5923L46.8926 2.8018C46.9296 2.6168 47.0097 2.4688 47.1331 2.3578C47.2687 2.23447 47.4414 2.1728 47.6511 2.1728H49.3161V8.6293H54.7366V11.0158H49.3161V22.2638C49.3161 23.0531 49.5072 23.639 49.8896 24.0213C50.2719 24.4036 50.7652 24.5948 51.3696 24.5948C51.7149 24.5948 52.0109 24.5516 52.2576 24.4653C52.5166 24.3666 52.7386 24.2618 52.9236 24.1508C53.1086 24.0398 53.2627 23.9411 53.3861 23.8548C53.5217 23.7561 53.6389 23.7068 53.7376 23.7068C53.9102 23.7068 54.0644 23.8116 54.2001 24.0213L55.1621 25.5938C54.5947 26.1241 53.9102 26.5435 53.1086 26.8518C52.3069 27.1478 51.4806 27.2958 50.6296 27.2958Z" fill="#404040"/>
<path d="M70.5714 15.5853C70.5714 14.8206 70.4604 14.1238 70.2384 13.4948C70.0288 12.8535 69.7143 12.3046 69.2949 11.8483C68.8879 11.3796 68.3884 11.022 67.7964 10.7753C67.2044 10.5163 66.5323 10.3868 65.7799 10.3868C64.2013 10.3868 62.9494 10.8493 62.0244 11.7743C61.1118 12.687 60.5444 13.9573 60.3224 15.5853H70.5714ZM73.2354 24.3728C72.8284 24.8661 72.3413 25.2978 71.7739 25.6678C71.2066 26.0255 70.5961 26.3215 69.9424 26.5558C69.3011 26.7901 68.6351 26.9628 67.9444 27.0738C67.2538 27.1971 66.5693 27.2588 65.8909 27.2588C64.5959 27.2588 63.3996 27.043 62.3019 26.6113C61.2166 26.1673 60.2731 25.526 59.4714 24.6873C58.6821 23.8363 58.0654 22.788 57.6214 21.5423C57.1774 20.2966 56.9554 18.866 56.9554 17.2503C56.9554 15.943 57.1528 14.722 57.5474 13.5873C57.9544 12.4526 58.5341 11.4721 59.2864 10.6458C60.0388 9.80714 60.9576 9.15347 62.0429 8.6848C63.1283 8.2038 64.3493 7.9633 65.7059 7.9633C66.8283 7.9633 67.8643 8.15447 68.8139 8.5368C69.7759 8.9068 70.6023 9.44947 71.2929 10.1648C71.9959 10.8678 72.5448 11.7435 72.9394 12.7918C73.3341 13.8278 73.5314 15.0118 73.5314 16.3438C73.5314 16.8618 73.4759 17.2071 73.3649 17.3798C73.2539 17.5525 73.0443 17.6388 72.7359 17.6388H60.2114C60.2484 18.8228 60.4088 19.8526 60.6924 20.7283C60.9884 21.604 61.3954 22.3378 61.9134 22.9298C62.4314 23.5095 63.0481 23.9473 63.7634 24.2433C64.4788 24.527 65.2804 24.6688 66.1684 24.6688C66.9948 24.6688 67.7039 24.5763 68.2959 24.3913C68.9003 24.194 69.4183 23.9843 69.8499 23.7623C70.2816 23.5403 70.6393 23.3368 70.9229 23.1518C71.2189 22.9545 71.4718 22.8558 71.6814 22.8558C71.9528 22.8558 72.1624 22.9606 72.3104 23.1703L73.2354 24.3728Z" fill="#404040"/>
<path d="M80.7028 12.0148C81.2948 10.7321 82.0224 9.73313 82.8858 9.0178C83.7491 8.29014 84.8036 7.9263 86.0493 7.9263C86.4439 7.9263 86.8201 7.96947 87.1778 8.0558C87.5478 8.14214 87.8746 8.2778 88.1583 8.4628L87.9178 10.9233C87.8438 11.2316 87.6588 11.3858 87.3628 11.3858C87.1901 11.3858 86.9373 11.3488 86.6043 11.2748C86.2713 11.2008 85.8951 11.1638 85.4758 11.1638C84.8838 11.1638 84.3534 11.2501 83.8848 11.4228C83.4284 11.5955 83.0153 11.8545 82.6453 12.1998C82.2876 12.5328 81.9608 12.9521 81.6648 13.4578C81.3811 13.9511 81.1221 14.5185 80.8878 15.1598V26.9998H77.5763V8.2593H79.4633C79.8209 8.2593 80.0676 8.32714 80.2033 8.4628C80.3389 8.59847 80.4314 8.8328 80.4808 9.1658L80.7028 12.0148Z" fill="#404040"/>
<path d="M92.2748 26.9998V11.0713L90.2028 10.8308C89.9438 10.7691 89.728 10.6766 89.5553 10.5533C89.395 10.4176 89.3148 10.2265 89.3148 9.9798V8.6293H92.2748V6.8163C92.2748 5.7433 92.4228 4.79364 92.7188 3.9673C93.0271 3.12864 93.4588 2.42563 94.0138 1.8583C94.5811 1.27864 95.2595 0.840802 96.0488 0.544802C96.8381 0.248801 97.7261 0.100801 98.7128 0.100801C99.5515 0.100801 100.322 0.224135 101.025 0.470803L100.951 2.1173C100.927 2.4133 100.76 2.57364 100.452 2.5983C100.156 2.62297 99.755 2.6353 99.2493 2.6353C98.682 2.6353 98.164 2.7093 97.6953 2.8573C97.239 3.0053 96.8443 3.2458 96.5113 3.5788C96.1783 3.9118 95.9193 4.34964 95.7343 4.8923C95.5616 5.43497 95.4753 6.10714 95.4753 6.9088V8.6293H100.877V11.0158H95.5863V26.9998H92.2748Z" fill="#404040"/>
<path d="M114.074 18.5638C112.557 18.6131 111.262 18.7365 110.189 18.9338C109.128 19.1188 108.258 19.3655 107.58 19.6738C106.914 19.9821 106.427 20.346 106.119 20.7653C105.823 21.1846 105.675 21.6533 105.675 22.1713C105.675 22.6646 105.755 23.0901 105.915 23.4478C106.075 23.8055 106.291 24.1015 106.563 24.3358C106.846 24.5578 107.173 24.7243 107.543 24.8353C107.925 24.934 108.332 24.9833 108.764 24.9833C109.344 24.9833 109.874 24.9278 110.355 24.8168C110.836 24.6935 111.286 24.5208 111.706 24.2988C112.137 24.0768 112.544 23.8116 112.927 23.5033C113.321 23.195 113.704 22.8435 114.074 22.4488V18.5638ZM103.436 10.9048C104.472 9.9058 105.588 9.15964 106.785 8.6663C107.981 8.17297 109.307 7.9263 110.762 7.9263C111.81 7.9263 112.742 8.09897 113.556 8.4443C114.37 8.78964 115.054 9.27064 115.609 9.8873C116.164 10.504 116.583 11.2501 116.867 12.1258C117.151 13.0015 117.293 13.9635 117.293 15.0118V26.9998H115.831C115.51 26.9998 115.264 26.9505 115.091 26.8518C114.918 26.7408 114.783 26.5311 114.684 26.2228L114.314 24.4468C113.821 24.9031 113.34 25.3101 112.871 25.6678C112.402 26.0131 111.909 26.3091 111.391 26.5558C110.873 26.7901 110.318 26.969 109.726 27.0923C109.146 27.228 108.499 27.2958 107.784 27.2958C107.056 27.2958 106.371 27.1971 105.73 26.9998C105.089 26.7901 104.528 26.4818 104.047 26.0748C103.578 25.6678 103.202 25.156 102.918 24.5393C102.647 23.9103 102.511 23.1703 102.511 22.3193C102.511 21.5793 102.715 20.8701 103.122 20.1918C103.529 19.5011 104.188 18.8906 105.101 18.3603C106.014 17.83 107.204 17.3983 108.672 17.0653C110.139 16.72 111.94 16.5226 114.074 16.4733V15.0118C114.074 13.5565 113.759 12.4588 113.13 11.7188C112.501 10.9665 111.582 10.5903 110.374 10.5903C109.56 10.5903 108.875 10.6951 108.32 10.9048C107.777 11.1021 107.303 11.3303 106.896 11.5893C106.501 11.836 106.156 12.0641 105.86 12.2738C105.576 12.4711 105.292 12.5698 105.009 12.5698C104.787 12.5698 104.595 12.5143 104.435 12.4033C104.275 12.28 104.139 12.132 104.028 11.9593L103.436 10.9048Z" fill="#404040"/>
<path d="M135.351 11.5893C135.253 11.725 135.154 11.8298 135.055 11.9038C134.957 11.9778 134.821 12.0148 134.648 12.0148C134.463 12.0148 134.26 11.9408 134.038 11.7928C133.816 11.6325 133.538 11.4598 133.205 11.2748C132.885 11.0898 132.484 10.9233 132.003 10.7753C131.534 10.615 130.954 10.5348 130.264 10.5348C129.339 10.5348 128.525 10.7013 127.822 11.0343C127.119 11.355 126.527 11.8236 126.046 12.4403C125.577 13.057 125.219 13.8031 124.973 14.6788C124.738 15.5545 124.621 16.535 124.621 17.6203C124.621 18.755 124.751 19.7663 125.01 20.6543C125.269 21.53 125.633 22.27 126.101 22.8743C126.582 23.4663 127.156 23.9226 127.822 24.2433C128.5 24.5516 129.259 24.7058 130.097 24.7058C130.899 24.7058 131.559 24.6133 132.077 24.4283C132.595 24.231 133.02 24.0151 133.353 23.7808C133.699 23.5465 133.982 23.3368 134.204 23.1518C134.439 22.9545 134.667 22.8558 134.889 22.8558C135.16 22.8558 135.37 22.9606 135.518 23.1703L136.443 24.3728C136.036 24.8785 135.573 25.3101 135.055 25.6678C134.537 26.0255 133.976 26.3276 133.372 26.5743C132.78 26.8086 132.157 26.9813 131.503 27.0923C130.85 27.2033 130.184 27.2588 129.505 27.2588C128.334 27.2588 127.242 27.043 126.231 26.6113C125.232 26.1796 124.362 25.5568 123.622 24.7428C122.882 23.9165 122.303 22.9051 121.883 21.7088C121.464 20.5125 121.254 19.1496 121.254 17.6203C121.254 16.2266 121.445 14.9378 121.828 13.7538C122.222 12.5698 122.79 11.5523 123.53 10.7013C124.282 9.83797 125.201 9.1658 126.286 8.6848C127.384 8.2038 128.642 7.9633 130.06 7.9633C131.38 7.9633 132.539 8.17914 133.538 8.6108C134.55 9.03014 135.444 9.6283 136.221 10.4053L135.351 11.5893Z" fill="#404040"/>
<path d="M152.195 15.5853C152.195 14.8206 152.084 14.1238 151.862 13.4948C151.653 12.8535 151.338 12.3046 150.919 11.8483C150.512 11.3796 150.012 11.022 149.42 10.7753C148.828 10.5163 148.156 10.3868 147.404 10.3868C145.825 10.3868 144.573 10.8493 143.648 11.7743C142.736 12.687 142.168 13.9573 141.946 15.5853H152.195ZM154.859 24.3728C154.452 24.8661 153.965 25.2978 153.398 25.6678C152.831 26.0255 152.22 26.3215 151.566 26.5558C150.925 26.7901 150.259 26.9628 149.568 27.0738C148.878 27.1971 148.193 27.2588 147.515 27.2588C146.22 27.2588 145.024 27.043 143.926 26.6113C142.841 26.1673 141.897 25.526 141.095 24.6873C140.306 23.8363 139.689 22.788 139.245 21.5423C138.801 20.2966 138.579 18.866 138.579 17.2503C138.579 15.943 138.777 14.722 139.171 13.5873C139.578 12.4526 140.158 11.4721 140.91 10.6458C141.663 9.80714 142.582 9.15347 143.667 8.6848C144.752 8.2038 145.973 7.9633 147.33 7.9633C148.452 7.9633 149.488 8.15447 150.438 8.5368C151.4 8.9068 152.226 9.44947 152.917 10.1648C153.62 10.8678 154.169 11.7435 154.563 12.7918C154.958 13.8278 155.155 15.0118 155.155 16.3438C155.155 16.8618 155.1 17.2071 154.989 17.3798C154.878 17.5525 154.668 17.6388 154.36 17.6388H141.835C141.872 18.8228 142.033 19.8526 142.316 20.7283C142.612 21.604 143.019 22.3378 143.537 22.9298C144.055 23.5095 144.672 23.9473 145.387 24.2433C146.103 24.527 146.904 24.6688 147.792 24.6688C148.619 24.6688 149.328 24.5763 149.92 24.3913C150.524 24.194 151.042 23.9843 151.474 23.7623C151.906 23.5403 152.263 23.3368 152.547 23.1518C152.843 22.9545 153.096 22.8558 153.305 22.8558C153.577 22.8558 153.786 22.9606 153.934 23.1703L154.859 24.3728Z" fill="#404040"/>
<path d="M25.632 72.496C25.632 75.424 25.272 78.064 24.552 80.416C23.832 82.768 22.752 84.772 21.312 86.428C19.896 88.084 18.12 89.356 15.984 90.244C13.848 91.132 11.364 91.576 8.53199 91.576C7.23599 91.576 5.96399 91.492 4.71599 91.324C3.46799 91.18 2.15999 90.94 0.791992 90.604C0.863992 89.644 0.947992 88.684 1.04399 87.724C1.13999 86.764 1.22399 85.804 1.29599 84.844C1.36799 84.316 1.57199 83.896 1.90799 83.584C2.26799 83.248 2.77199 83.08 3.41999 83.08C3.82799 83.08 4.35599 83.164 5.00399 83.332C5.67599 83.5 6.51599 83.584 7.52399 83.584C8.89199 83.584 10.104 83.392 11.16 83.008C12.216 82.6 13.092 81.964 13.788 81.1C14.508 80.236 15.048 79.12 15.408 77.752C15.768 76.36 15.948 74.68 15.948 72.712V38.944H25.632V72.496Z" fill="#404040"/>
<path d="M63.4641 71.344L57.1281 54.028C56.8161 53.26 56.4921 52.348 56.1561 51.292C55.8201 50.236 55.4841 49.096 55.1481 47.872C54.8361 49.096 54.5121 50.248 54.1761 51.328C53.8401 52.384 53.5161 53.308 53.2041 54.1L46.9041 71.344H63.4641ZM80.5641 91H73.0761C72.2361 91 71.5521 90.796 71.0241 90.388C70.4961 89.956 70.1001 89.428 69.8361 88.804L65.9481 78.184H44.3841L40.4961 88.804C40.3041 89.356 39.9321 89.86 39.3801 90.316C38.8281 90.772 38.1441 91 37.3281 91H29.7681L50.2521 38.944H60.1161L80.5641 91Z" fill="#404040"/>
<path d="M129.836 38.944V91H124.868C124.1 91 123.452 90.88 122.924 90.64C122.42 90.376 121.928 89.944 121.448 89.344L94.2682 54.64C94.4122 56.224 94.4842 57.688 94.4842 59.032V91H85.9522V38.944H91.0282C91.4362 38.944 91.7842 38.968 92.0722 39.016C92.3842 39.04 92.6482 39.112 92.8642 39.232C93.1042 39.328 93.3322 39.484 93.5482 39.7C93.7642 39.892 94.0042 40.156 94.2682 40.492L121.556 75.34C121.484 74.5 121.424 73.672 121.376 72.856C121.328 72.04 121.304 71.284 121.304 70.588V38.944H129.836Z" fill="#404040"/>
<path d="M184.341 64.9V85.96C181.701 87.904 178.881 89.332 175.881 90.244C172.905 91.132 169.713 91.576 166.305 91.576C162.057 91.576 158.205 90.916 154.749 89.596C151.317 88.276 148.377 86.44 145.929 84.088C143.505 81.736 141.633 78.928 140.313 75.664C138.993 72.4 138.333 68.836 138.333 64.972C138.333 61.06 138.969 57.472 140.241 54.208C141.513 50.944 143.313 48.136 145.641 45.784C147.993 43.432 150.837 41.608 154.173 40.312C157.509 39.016 161.253 38.368 165.405 38.368C167.517 38.368 169.485 38.536 171.309 38.872C173.157 39.208 174.861 39.676 176.421 40.276C178.005 40.852 179.445 41.56 180.741 42.4C182.037 43.24 183.225 44.164 184.305 45.172L181.533 49.564C181.101 50.26 180.537 50.692 179.841 50.86C179.145 51.004 178.389 50.824 177.573 50.32C176.781 49.864 175.989 49.408 175.197 48.952C174.405 48.496 173.517 48.1 172.533 47.764C171.573 47.428 170.481 47.152 169.257 46.936C168.057 46.72 166.665 46.612 165.081 46.612C162.513 46.612 160.185 47.044 158.097 47.908C156.033 48.772 154.269 50.008 152.805 51.616C151.341 53.224 150.213 55.156 149.421 57.412C148.629 59.668 148.233 62.188 148.233 64.972C148.233 67.948 148.653 70.612 149.493 72.964C150.357 75.292 151.557 77.272 153.093 78.904C154.653 80.512 156.525 81.748 158.709 82.612C160.893 83.452 163.329 83.872 166.017 83.872C167.937 83.872 169.653 83.668 171.165 83.26C172.677 82.852 174.153 82.3 175.593 81.604V72.172H169.041C168.417 72.172 167.925 72.004 167.565 71.668C167.229 71.308 167.061 70.876 167.061 70.372V64.9H184.341Z" fill="#404040"/>
<path d="M279.951 38.944L263.787 91H255.039L243.663 55.432C243.351 54.568 243.063 53.512 242.799 52.264C242.655 52.864 242.511 53.428 242.367 53.956C242.223 54.484 242.067 54.976 241.899 55.432L230.415 91H221.631L205.503 38.944H213.603C214.443 38.944 215.139 39.148 215.691 39.556C216.267 39.94 216.651 40.468 216.843 41.14L225.699 72.28C225.891 73.048 226.071 73.888 226.239 74.8C226.431 75.688 226.623 76.624 226.815 77.608C227.007 76.6 227.211 75.652 227.427 74.764C227.667 73.876 227.919 73.048 228.183 72.28L238.407 41.14C238.599 40.588 238.971 40.084 239.523 39.628C240.099 39.172 240.795 38.944 241.611 38.944H244.455C245.295 38.944 245.979 39.148 246.507 39.556C247.035 39.964 247.431 40.492 247.695 41.14L257.883 72.28C258.387 73.768 258.843 75.484 259.251 77.428C259.563 75.532 259.911 73.816 260.295 72.28L269.151 41.14C269.295 40.54 269.655 40.024 270.231 39.592C270.831 39.16 271.539 38.944 272.355 38.944H279.951Z" fill="#404040"/>
<path d="M334.932 64.972C334.932 68.788 334.296 72.328 333.024 75.592C331.776 78.832 330 81.64 327.696 84.016C325.392 86.392 322.62 88.252 319.38 89.596C316.14 90.916 312.54 91.576 308.58 91.576C304.644 91.576 301.056 90.916 297.816 89.596C294.576 88.252 291.792 86.392 289.464 84.016C287.16 81.64 285.372 78.832 284.1 75.592C282.828 72.328 282.192 68.788 282.192 64.972C282.192 61.156 282.828 57.628 284.1 54.388C285.372 51.124 287.16 48.304 289.464 45.928C291.792 43.552 294.576 41.704 297.816 40.384C301.056 39.04 304.644 38.368 308.58 38.368C311.22 38.368 313.704 38.68 316.032 39.304C318.36 39.904 320.496 40.768 322.44 41.896C324.384 43 326.124 44.356 327.66 45.964C329.22 47.548 330.54 49.324 331.62 51.292C332.7 53.26 333.516 55.396 334.068 57.7C334.644 60.004 334.932 62.428 334.932 64.972ZM325.032 64.972C325.032 62.116 324.648 59.56 323.88 57.304C323.112 55.024 322.02 53.092 320.604 51.508C319.188 49.924 317.46 48.712 315.42 47.872C313.404 47.032 311.124 46.612 308.58 46.612C306.036 46.612 303.744 47.032 301.704 47.872C299.688 48.712 297.96 49.924 296.52 51.508C295.104 53.092 294.012 55.024 293.244 57.304C292.476 59.56 292.092 62.116 292.092 64.972C292.092 67.828 292.476 70.396 293.244 72.676C294.012 74.932 295.104 76.852 296.52 78.436C297.96 79.996 299.688 81.196 301.704 82.036C303.744 82.876 306.036 83.296 308.58 83.296C311.124 83.296 313.404 82.876 315.42 82.036C317.46 81.196 319.188 79.996 320.604 78.436C322.02 76.852 323.112 74.932 323.88 72.676C324.648 70.396 325.032 67.828 325.032 64.972Z" fill="#404040"/>
<path d="M393.081 64.972C393.081 68.788 392.445 72.328 391.173 75.592C389.925 78.832 388.149 81.64 385.845 84.016C383.541 86.392 380.769 88.252 377.529 89.596C374.289 90.916 370.689 91.576 366.729 91.576C362.793 91.576 359.205 90.916 355.965 89.596C352.725 88.252 349.941 86.392 347.613 84.016C345.309 81.64 343.521 78.832 342.249 75.592C340.977 72.328 340.341 68.788 340.341 64.972C340.341 61.156 340.977 57.628 342.249 54.388C343.521 51.124 345.309 48.304 347.613 45.928C349.941 43.552 352.725 41.704 355.965 40.384C359.205 39.04 362.793 38.368 366.729 38.368C369.369 38.368 371.853 38.68 374.181 39.304C376.509 39.904 378.645 40.768 380.589 41.896C382.533 43 384.273 44.356 385.809 45.964C387.369 47.548 388.689 49.324 389.769 51.292C390.849 53.26 391.665 55.396 392.217 57.7C392.793 60.004 393.081 62.428 393.081 64.972ZM383.181 64.972C383.181 62.116 382.797 59.56 382.029 57.304C381.261 55.024 380.169 53.092 378.753 51.508C377.337 49.924 375.609 48.712 373.569 47.872C371.553 47.032 369.273 46.612 366.729 46.612C364.185 46.612 361.893 47.032 359.853 47.872C357.837 48.712 356.109 49.924 354.669 51.508C353.253 53.092 352.161 55.024 351.393 57.304C350.625 59.56 350.241 62.116 350.241 64.972C350.241 67.828 350.625 70.396 351.393 72.676C352.161 74.932 353.253 76.852 354.669 78.436C356.109 79.996 357.837 81.196 359.853 82.036C361.893 82.876 364.185 83.296 366.729 83.296C369.273 83.296 371.553 82.876 373.569 82.036C375.609 81.196 377.337 79.996 378.753 78.436C380.169 76.852 381.261 74.932 382.029 72.676C382.797 70.396 383.181 67.828 383.181 64.972Z" fill="#404040"/>
<path d="M445.469 38.944V91H440.501C439.733 91 439.085 90.88 438.557 90.64C438.053 90.376 437.561 89.944 437.081 89.344L409.901 54.64C410.045 56.224 410.117 57.688 410.117 59.032V91H401.585V38.944H406.661C407.069 38.944 407.417 38.968 407.705 39.016C408.017 39.04 408.281 39.112 408.497 39.232C408.737 39.328 408.965 39.484 409.181 39.7C409.397 39.892 409.637 40.156 409.901 40.492L437.189 75.34C437.117 74.5 437.057 73.672 437.009 72.856C436.961 72.04 436.937 71.284 436.937 70.588V38.944H445.469Z" fill="#404040"/>
<path d="M499.974 64.9V85.96C497.334 87.904 494.514 89.332 491.514 90.244C488.538 91.132 485.346 91.576 481.938 91.576C477.69 91.576 473.838 90.916 470.382 89.596C466.95 88.276 464.01 86.44 461.562 84.088C459.138 81.736 457.266 78.928 455.946 75.664C454.626 72.4 453.966 68.836 453.966 64.972C453.966 61.06 454.602 57.472 455.874 54.208C457.146 50.944 458.946 48.136 461.274 45.784C463.626 43.432 466.47 41.608 469.806 40.312C473.142 39.016 476.886 38.368 481.038 38.368C483.15 38.368 485.118 38.536 486.942 38.872C488.79 39.208 490.494 39.676 492.054 40.276C493.638 40.852 495.078 41.56 496.374 42.4C497.67 43.24 498.858 44.164 499.938 45.172L497.166 49.564C496.734 50.26 496.17 50.692 495.474 50.86C494.778 51.004 494.022 50.824 493.206 50.32C492.414 49.864 491.622 49.408 490.83 48.952C490.038 48.496 489.15 48.1 488.166 47.764C487.206 47.428 486.114 47.152 484.89 46.936C483.69 46.72 482.298 46.612 480.714 46.612C478.146 46.612 475.818 47.044 473.73 47.908C471.666 48.772 469.902 50.008 468.438 51.616C466.974 53.224 465.846 55.156 465.054 57.412C464.262 59.668 463.866 62.188 463.866 64.972C463.866 67.948 464.286 70.612 465.126 72.964C465.99 75.292 467.19 77.272 468.726 78.904C470.286 80.512 472.158 81.748 474.342 82.612C476.526 83.452 478.962 83.872 481.65 83.872C483.57 83.872 485.286 83.668 486.798 83.26C488.31 82.852 489.786 82.3 491.226 81.604V72.172H484.674C484.05 72.172 483.558 72.004 483.198 71.668C482.862 71.308 482.694 70.876 482.694 70.372V64.9H499.974Z" fill="#404040"/>
<path d="M569.724 64.9V85.96C567.084 87.904 564.264 89.332 561.264 90.244C558.288 91.132 555.096 91.576 551.688 91.576C547.44 91.576 543.588 90.916 540.132 89.596C536.7 88.276 533.76 86.44 531.312 84.088C528.888 81.736 527.016 78.928 525.696 75.664C524.376 72.4 523.716 68.836 523.716 64.972C523.716 61.06 524.352 57.472 525.624 54.208C526.896 50.944 528.696 48.136 531.024 45.784C533.376 43.432 536.22 41.608 539.556 40.312C542.892 39.016 546.636 38.368 550.788 38.368C552.9 38.368 554.868 38.536 556.692 38.872C558.54 39.208 560.244 39.676 561.804 40.276C563.388 40.852 564.828 41.56 566.124 42.4C567.42 43.24 568.608 44.164 569.688 45.172L566.916 49.564C566.484 50.26 565.92 50.692 565.224 50.86C564.528 51.004 563.772 50.824 562.956 50.32C562.164 49.864 561.372 49.408 560.58 48.952C559.788 48.496 558.9 48.1 557.916 47.764C556.956 47.428 555.864 47.152 554.64 46.936C553.44 46.72 552.048 46.612 550.464 46.612C547.896 46.612 545.568 47.044 543.48 47.908C541.416 48.772 539.652 50.008 538.188 51.616C536.724 53.224 535.596 55.156 534.804 57.412C534.012 59.668 533.616 62.188 533.616 64.972C533.616 67.948 534.036 70.612 534.876 72.964C535.74 75.292 536.94 77.272 538.476 78.904C540.036 80.512 541.908 81.748 544.092 82.612C546.276 83.452 548.712 83.872 551.4 83.872C553.32 83.872 555.036 83.668 556.548 83.26C558.06 82.852 559.536 82.3 560.976 81.604V72.172H554.424C553.8 72.172 553.308 72.004 552.948 71.668C552.612 71.308 552.444 70.876 552.444 70.372V64.9H569.724Z" fill="#404040"/>
<path d="M588.774 46.648V61.084H606.99V68.536H588.774V83.26H611.886V91H579.054V38.944H611.886V46.648H588.774Z" fill="#404040"/>
<path d="M641.42 83.188C643.292 83.188 644.96 82.876 646.424 82.252C647.912 81.628 649.16 80.752 650.168 79.624C651.176 78.496 651.944 77.128 652.472 75.52C653.024 73.912 653.3 72.112 653.3 70.12V38.944H662.984V70.12C662.984 73.216 662.48 76.084 661.472 78.724C660.488 81.34 659.06 83.608 657.188 85.528C655.34 87.424 653.084 88.912 650.42 89.992C647.756 91.048 644.756 91.576 641.42 91.576C638.06 91.576 635.048 91.048 632.384 89.992C629.72 88.912 627.452 87.424 625.58 85.528C623.732 83.608 622.304 81.34 621.296 78.724C620.312 76.084 619.82 73.216 619.82 70.12V38.944H629.504V70.084C629.504 72.076 629.768 73.876 630.296 75.484C630.848 77.092 631.628 78.472 632.636 79.624C633.668 80.752 634.916 81.628 636.38 82.252C637.868 82.876 639.548 83.188 641.42 83.188Z" fill="#404040"/>
<path d="M717.789 38.944V91H712.821C712.053 91 711.405 90.88 710.877 90.64C710.373 90.376 709.881 89.944 709.401 89.344L682.221 54.64C682.365 56.224 682.437 57.688 682.437 59.032V91H673.905V38.944H678.981C679.389 38.944 679.737 38.968 680.025 39.016C680.337 39.04 680.601 39.112 680.817 39.232C681.057 39.328 681.285 39.484 681.501 39.7C681.717 39.892 681.957 40.156 682.221 40.492L709.509 75.34C709.437 74.5 709.377 73.672 709.329 72.856C709.281 72.04 709.257 71.284 709.257 70.588V38.944H717.789Z" fill="#404040"/>
</svg>
