<svg width="163" height="37" viewBox="0 0 163 37" fill="none" xmlns="http://www.w3.org/2000/svg">
<path d="M9.35795 14.0581C10.246 14.0581 11.0199 13.9501 11.6799 13.7341C12.3399 13.5061 12.8859 13.1881 13.3179 12.7801C13.762 12.3601 14.0919 11.8561 14.3079 11.2681C14.5239 10.6681 14.6319 10.0021 14.6319 9.27008C14.6319 8.57408 14.5239 7.94408 14.3079 7.38008C14.0919 6.81608 13.768 6.33608 13.3359 5.94008C12.9039 5.54408 12.3579 5.24408 11.6979 5.04008C11.0379 4.82408 10.258 4.71608 9.35795 4.71608H5.73995V14.0581H9.35795ZM9.35795 0.97208C11.0979 0.97208 12.6039 1.17608 13.8759 1.58408C15.1479 1.99208 16.1979 2.56208 17.0259 3.29408C17.8539 4.02608 18.466 4.90208 18.8619 5.92208C19.27 6.94208 19.4739 8.05808 19.4739 9.27008C19.4739 10.5301 19.2639 11.6881 18.844 12.7441C18.4239 13.7881 17.794 14.6881 16.954 15.4441C16.114 16.2001 15.0579 16.7881 13.7859 17.2081C12.5259 17.6281 11.0499 17.8381 9.35795 17.8381H5.73995V27.0001H0.897949V0.97208H9.35795Z" fill="#404040"/>
<path d="M31.053 13.3561C31.965 13.3561 32.757 13.2421 33.429 13.0141C34.113 12.7861 34.671 12.4741 35.103 12.0781C35.547 11.6701 35.877 11.1901 36.093 10.6381C36.309 10.0861 36.417 9.48008 36.417 8.82008C36.417 7.50008 35.979 6.48608 35.103 5.77808C34.239 5.07008 32.913 4.71608 31.125 4.71608H28.029V13.3561H31.053ZM43.509 27.0001H39.135C38.307 27.0001 37.707 26.6761 37.335 26.0281L31.863 17.6941C31.659 17.3821 31.431 17.1601 31.179 17.0281C30.939 16.8961 30.579 16.8301 30.099 16.8301H28.029V27.0001H23.187V0.97208H31.125C32.889 0.97208 34.401 1.15808 35.661 1.53008C36.933 1.89008 37.971 2.40008 38.775 3.06008C39.591 3.72008 40.191 4.51208 40.575 5.43608C40.959 6.34808 41.151 7.35608 41.151 8.46008C41.151 9.33608 41.019 10.1641 40.755 10.9441C40.503 11.7241 40.131 12.4321 39.639 13.0681C39.159 13.7041 38.559 14.2621 37.839 14.7421C37.131 15.2221 36.321 15.6001 35.409 15.8761C35.721 16.0561 36.009 16.2721 36.273 16.5241C36.537 16.7641 36.777 17.0521 36.993 17.3881L43.509 27.0001Z" fill="#404040"/>
<path d="M70.7903 13.9861C70.7903 15.8941 70.4723 17.6641 69.8363 19.2961C69.2123 20.9161 68.3243 22.3201 67.1723 23.5081C66.0203 24.6961 64.6343 25.6261 63.0143 26.2981C61.3943 26.9581 59.5943 27.2881 57.6143 27.2881C55.6463 27.2881 53.8523 26.9581 52.2323 26.2981C50.6123 25.6261 49.2203 24.6961 48.0563 23.5081C46.9043 22.3201 46.0103 20.9161 45.3743 19.2961C44.7383 17.6641 44.4203 15.8941 44.4203 13.9861C44.4203 12.0781 44.7383 10.3141 45.3743 8.69408C46.0103 7.06208 46.9043 5.65208 48.0563 4.46408C49.2203 3.27608 50.6123 2.35208 52.2323 1.69208C53.8523 1.02008 55.6463 0.684082 57.6143 0.684082C58.9343 0.684082 60.1763 0.840081 61.3403 1.15208C62.5043 1.45208 63.5723 1.88408 64.5443 2.44808C65.5163 3.00008 66.3863 3.67808 67.1543 4.48208C67.9343 5.27408 68.5943 6.16208 69.1343 7.14608C69.6743 8.13008 70.0823 9.19808 70.3583 10.3501C70.6463 11.5021 70.7903 12.7141 70.7903 13.9861ZM65.8403 13.9861C65.8403 12.5581 65.6483 11.2801 65.2643 10.1521C64.8803 9.01208 64.3343 8.04608 63.6263 7.25408C62.9183 6.46208 62.0543 5.85608 61.0343 5.43608C60.0263 5.01608 58.8863 4.80608 57.6143 4.80608C56.3423 4.80608 55.1963 5.01608 54.1763 5.43608C53.1683 5.85608 52.3043 6.46208 51.5843 7.25408C50.8763 8.04608 50.3303 9.01208 49.9463 10.1521C49.5623 11.2801 49.3703 12.5581 49.3703 13.9861C49.3703 15.4141 49.5623 16.6981 49.9463 17.8381C50.3303 18.9661 50.8763 19.9261 51.5843 20.7181C52.3043 21.4981 53.1683 22.0981 54.1763 22.5181C55.1963 22.9381 56.3423 23.1481 57.6143 23.1481C58.8863 23.1481 60.0263 22.9381 61.0343 22.5181C62.0543 22.0981 62.9183 21.4981 63.6263 20.7181C64.3343 19.9261 64.8803 18.9661 65.2643 17.8381C65.6483 16.6981 65.8403 15.4141 65.8403 13.9861Z" fill="#404040"/>
<path d="M83.8706 17.7481C83.8706 19.2121 83.6906 20.5321 83.3306 21.7081C82.9706 22.8841 82.4306 23.8861 81.7106 24.7141C81.0026 25.5421 80.1146 26.1781 79.0466 26.6221C77.9786 27.0661 76.7366 27.2881 75.3206 27.2881C74.6726 27.2881 74.0366 27.2461 73.4126 27.1621C72.7886 27.0901 72.1346 26.9701 71.4506 26.8021C71.4866 26.3221 71.5286 25.8421 71.5766 25.3621C71.6246 24.8821 71.6666 24.4021 71.7026 23.9221C71.7386 23.6581 71.8406 23.4481 72.0086 23.2921C72.1886 23.1241 72.4406 23.0401 72.7646 23.0401C72.9686 23.0401 73.2326 23.0821 73.5566 23.1661C73.8926 23.2501 74.3126 23.2921 74.8166 23.2921C75.5006 23.2921 76.1066 23.1961 76.6346 23.0041C77.1626 22.8001 77.6006 22.4821 77.9486 22.0501C78.3086 21.6181 78.5786 21.0601 78.7586 20.3761C78.9386 19.6801 79.0286 18.8401 79.0286 17.8561V0.97208H83.8706V17.7481Z" fill="#404040"/>
<path d="M94.2814 4.82408V12.0421H103.389V15.7681H94.2814V23.1301H105.837V27.0001H89.4214V0.97208H105.837V4.82408H94.2814Z" fill="#404040"/>
<path d="M127.44 20.8621C127.704 20.8621 127.938 20.9641 128.142 21.1681L130.05 23.2381C128.994 24.5461 127.692 25.5481 126.144 26.2441C124.608 26.9401 122.76 27.2881 120.6 27.2881C118.668 27.2881 116.928 26.9581 115.38 26.2981C113.844 25.6381 112.53 24.7201 111.438 23.5441C110.346 22.3681 109.506 20.9641 108.918 19.3321C108.342 17.7001 108.054 15.9181 108.054 13.9861C108.054 12.0301 108.366 10.2421 108.99 8.62208C109.614 6.99008 110.49 5.58608 111.618 4.41008C112.758 3.23408 114.114 2.32208 115.686 1.67408C117.258 1.01408 118.998 0.684082 120.906 0.684082C122.802 0.684082 124.482 0.996082 125.946 1.62008C127.422 2.24408 128.676 3.06008 129.708 4.06808L128.088 6.31808C127.992 6.46208 127.866 6.58808 127.71 6.69608C127.566 6.80408 127.362 6.85808 127.098 6.85808C126.918 6.85808 126.732 6.81008 126.54 6.71408C126.348 6.60608 126.138 6.48008 125.91 6.33608C125.682 6.18008 125.418 6.01208 125.118 5.83208C124.818 5.65208 124.47 5.49008 124.074 5.34608C123.678 5.19008 123.216 5.06408 122.688 4.96808C122.172 4.86008 121.572 4.80608 120.888 4.80608C119.724 4.80608 118.656 5.01608 117.684 5.43608C116.724 5.84408 115.896 6.44408 115.2 7.23608C114.504 8.01608 113.964 8.97608 113.58 10.1161C113.196 11.2441 113.004 12.5341 113.004 13.9861C113.004 15.4501 113.208 16.7521 113.616 17.8921C114.036 19.0321 114.6 19.9921 115.308 20.7721C116.016 21.5521 116.85 22.1521 117.81 22.5721C118.77 22.9801 119.802 23.1841 120.906 23.1841C121.566 23.1841 122.16 23.1481 122.688 23.0761C123.228 23.0041 123.72 22.8901 124.164 22.7341C124.62 22.5781 125.046 22.3801 125.442 22.1401C125.85 21.8881 126.252 21.5821 126.648 21.2221C126.768 21.1141 126.894 21.0301 127.026 20.9701C127.158 20.8981 127.296 20.8621 127.44 20.8621Z" fill="#404040"/>
<path d="M151.547 4.95008H143.699V27.0001H138.857V4.95008H131.009V0.97208H151.547V4.95008Z" fill="#404040"/>
<path d="M161.546 12.1321C161.426 12.3241 161.3 12.4621 161.168 12.5461C161.036 12.6181 160.868 12.6541 160.664 12.6541C160.448 12.6541 160.214 12.5941 159.962 12.4741C159.722 12.3541 159.44 12.2221 159.116 12.0781C158.792 11.9221 158.42 11.7841 158 11.6641C157.592 11.5441 157.106 11.4841 156.542 11.4841C155.666 11.4841 154.976 11.6701 154.472 12.0421C153.98 12.4141 153.734 12.9001 153.734 13.5001C153.734 13.8961 153.86 14.2321 154.112 14.5081C154.376 14.7721 154.718 15.0061 155.138 15.2101C155.57 15.4141 156.056 15.6001 156.596 15.7681C157.136 15.9241 157.682 16.0981 158.234 16.2901C158.798 16.4821 159.35 16.7041 159.89 16.9561C160.43 17.1961 160.91 17.5081 161.33 17.8921C161.762 18.2641 162.104 18.7141 162.356 19.2421C162.62 19.7701 162.752 20.4061 162.752 21.1501C162.752 22.0381 162.59 22.8601 162.266 23.6161C161.954 24.3601 161.486 25.0081 160.862 25.5601C160.238 26.1001 159.464 26.5261 158.54 26.8381C157.628 27.1381 156.572 27.2881 155.372 27.2881C154.736 27.2881 154.112 27.2281 153.5 27.1081C152.9 27.0001 152.318 26.8441 151.754 26.6401C151.202 26.4361 150.686 26.1961 150.206 25.9201C149.738 25.6441 149.324 25.3441 148.964 25.0201L149.99 23.3281C150.122 23.1241 150.278 22.9681 150.458 22.8601C150.638 22.7521 150.866 22.6981 151.142 22.6981C151.418 22.6981 151.676 22.7761 151.916 22.9321C152.168 23.0881 152.456 23.2561 152.78 23.4361C153.104 23.6161 153.482 23.7841 153.914 23.9401C154.358 24.0961 154.916 24.1741 155.588 24.1741C156.116 24.1741 156.566 24.1141 156.938 23.9941C157.322 23.8621 157.634 23.6941 157.874 23.4901C158.126 23.2861 158.306 23.0521 158.414 22.7881C158.534 22.5121 158.594 22.2301 158.594 21.9421C158.594 21.5101 158.462 21.1561 158.198 20.8801C157.946 20.6041 157.604 20.3641 157.172 20.1601C156.752 19.9561 156.266 19.7761 155.714 19.6201C155.174 19.4521 154.616 19.2721 154.04 19.0801C153.476 18.8881 152.918 18.6661 152.366 18.4141C151.826 18.1501 151.34 17.8201 150.908 17.4241C150.488 17.0281 150.146 16.5421 149.882 15.9661C149.63 15.3901 149.504 14.6941 149.504 13.8781C149.504 13.1221 149.654 12.4021 149.954 11.7181C150.254 11.0341 150.692 10.4401 151.268 9.93608C151.856 9.42008 152.582 9.01208 153.446 8.71208C154.322 8.40008 155.33 8.24408 156.47 8.24408C157.742 8.24408 158.9 8.45408 159.944 8.87408C160.988 9.29408 161.858 9.84608 162.554 10.5301L161.546 12.1321Z" fill="#404040"/>
<path d="M0.999949 34.0001H163V37.0001H0.999949V34.0001Z" fill="#404040"/>
</svg>
