<svg width="192" height="37" viewBox="0 0 192 37" fill="none" xmlns="http://www.w3.org/2000/svg">
<path d="M21.078 4.95008H13.23V27.0001H8.38804V4.95008H0.540039V0.97208H21.078V4.95008Z" fill="#404040"/>
<path d="M46.426 0.97208V27.0001H41.566V15.6241H29.344V27.0001H24.484V0.97208H29.344V12.1681H41.566V0.97208H46.426Z" fill="#404040"/>
<path d="M77.0443 13.9861C77.0443 15.8941 76.7263 17.6641 76.0903 19.2961C75.4663 20.9161 74.5783 22.3201 73.4263 23.5081C72.2743 24.6961 70.8883 25.6261 69.2683 26.2981C67.6483 26.9581 65.8483 27.2881 63.8683 27.2881C61.9003 27.2881 60.1063 26.9581 58.4863 26.2981C56.8663 25.6261 55.4743 24.6961 54.3103 23.5081C53.1583 22.3201 52.2643 20.9161 51.6283 19.2961C50.9923 17.6641 50.6743 15.8941 50.6743 13.9861C50.6743 12.0781 50.9923 10.3141 51.6283 8.69408C52.2643 7.06208 53.1583 5.65208 54.3103 4.46408C55.4743 3.27608 56.8663 2.35208 58.4863 1.69208C60.1063 1.02008 61.9003 0.684082 63.8683 0.684082C65.1883 0.684082 66.4303 0.840081 67.5943 1.15208C68.7583 1.45208 69.8263 1.88408 70.7983 2.44808C71.7703 3.00008 72.6403 3.67808 73.4083 4.48208C74.1883 5.27408 74.8483 6.16208 75.3883 7.14608C75.9283 8.13008 76.3363 9.19808 76.6123 10.3501C76.9003 11.5021 77.0443 12.7141 77.0443 13.9861ZM72.0943 13.9861C72.0943 12.5581 71.9023 11.2801 71.5183 10.1521C71.1343 9.01208 70.5883 8.04608 69.8803 7.25408C69.1723 6.46208 68.3083 5.85608 67.2883 5.43608C66.2803 5.01608 65.1403 4.80608 63.8683 4.80608C62.5963 4.80608 61.4503 5.01608 60.4303 5.43608C59.4223 5.85608 58.5583 6.46208 57.8383 7.25408C57.1303 8.04608 56.5843 9.01208 56.2003 10.1521C55.8163 11.2801 55.6243 12.5581 55.6243 13.9861C55.6243 15.4141 55.8163 16.6981 56.2003 17.8381C56.5843 18.9661 57.1303 19.9261 57.8383 20.7181C58.5583 21.4981 59.4223 22.0981 60.4303 22.5181C61.4503 22.9381 62.5963 23.1481 63.8683 23.1481C65.1403 23.1481 66.2803 22.9381 67.2883 22.5181C68.3083 22.0981 69.1723 21.4981 69.8803 20.7181C70.5883 19.9261 71.1343 18.9661 71.5183 17.8381C71.9023 16.6981 72.0943 15.4141 72.0943 13.9861Z" fill="#404040"/>
<path d="M91.7725 23.0941C92.7085 23.0941 93.5425 22.9381 94.2745 22.6261C95.0185 22.3141 95.6425 21.8761 96.1465 21.3121C96.6505 20.7481 97.0345 20.0641 97.2985 19.2601C97.5745 18.4561 97.7125 17.5561 97.7125 16.5601V0.97208H102.554V16.5601C102.554 18.1081 102.302 19.5421 101.798 20.8621C101.306 22.1701 100.592 23.3041 99.6565 24.2641C98.7325 25.2121 97.6045 25.9561 96.2725 26.4961C94.9405 27.0241 93.4405 27.2881 91.7725 27.2881C90.0925 27.2881 88.5865 27.0241 87.2545 26.4961C85.9225 25.9561 84.7885 25.2121 83.8525 24.2641C82.9285 23.3041 82.2145 22.1701 81.7105 20.8621C81.2185 19.5421 80.9725 18.1081 80.9725 16.5601V0.97208H85.8145V16.5421C85.8145 17.5381 85.9465 18.4381 86.2105 19.2421C86.4865 20.0461 86.8765 20.7361 87.3805 21.3121C87.8965 21.8761 88.5205 22.3141 89.2525 22.6261C89.9965 22.9381 90.8365 23.0941 91.7725 23.0941Z" fill="#404040"/>
<path d="M129.471 13.9501V24.4801C128.151 25.4521 126.741 26.1661 125.241 26.6221C123.753 27.0661 122.157 27.2881 120.453 27.2881C118.329 27.2881 116.403 26.9581 114.675 26.2981C112.959 25.6381 111.489 24.7201 110.265 23.5441C109.053 22.3681 108.117 20.9641 107.457 19.3321C106.797 17.7001 106.467 15.9181 106.467 13.9861C106.467 12.0301 106.785 10.2361 107.421 8.60408C108.057 6.97208 108.957 5.56808 110.121 4.39208C111.297 3.21608 112.719 2.30408 114.387 1.65608C116.055 1.00808 117.927 0.684082 120.003 0.684082C121.059 0.684082 122.043 0.768082 122.955 0.936081C123.879 1.10408 124.731 1.33808 125.511 1.63808C126.303 1.92608 127.023 2.28008 127.671 2.70008C128.319 3.12008 128.913 3.58208 129.453 4.08608L128.067 6.28208C127.851 6.63008 127.569 6.84608 127.221 6.93008C126.873 7.00208 126.495 6.91208 126.087 6.66008C125.691 6.43208 125.295 6.20408 124.899 5.97608C124.503 5.74808 124.059 5.55008 123.567 5.38208C123.087 5.21408 122.541 5.07608 121.929 4.96808C121.329 4.86008 120.633 4.80608 119.841 4.80608C118.557 4.80608 117.393 5.02208 116.349 5.45408C115.317 5.88608 114.435 6.50408 113.703 7.30808C112.971 8.11208 112.407 9.07808 112.011 10.2061C111.615 11.3341 111.417 12.5941 111.417 13.9861C111.417 15.4741 111.627 16.8061 112.047 17.9821C112.479 19.1461 113.079 20.1361 113.847 20.9521C114.627 21.7561 115.563 22.3741 116.655 22.8061C117.747 23.2261 118.965 23.4361 120.309 23.4361C121.269 23.4361 122.127 23.3341 122.883 23.1301C123.639 22.9261 124.377 22.6501 125.097 22.3021V17.5861H121.821C121.509 17.5861 121.263 17.5021 121.083 17.3341C120.915 17.1541 120.831 16.9381 120.831 16.6861V13.9501H129.471Z" fill="#404040"/>
<path d="M156.078 0.97208V27.0001H151.218V15.6241H138.996V27.0001H134.136V0.97208H138.996V12.1681H151.218V0.97208H156.078Z" fill="#404040"/>
<path d="M180.055 4.95008H172.207V27.0001H167.365V4.95008H159.517V0.97208H180.055V4.95008Z" fill="#404040"/>
<path d="M190.054 12.1321C189.934 12.3241 189.808 12.4621 189.676 12.5461C189.544 12.6181 189.376 12.6541 189.172 12.6541C188.956 12.6541 188.722 12.5941 188.47 12.4741C188.23 12.3541 187.948 12.2221 187.624 12.0781C187.3 11.9221 186.928 11.7841 186.508 11.6641C186.1 11.5441 185.614 11.4841 185.05 11.4841C184.174 11.4841 183.484 11.6701 182.98 12.0421C182.488 12.4141 182.242 12.9001 182.242 13.5001C182.242 13.8961 182.368 14.2321 182.62 14.5081C182.884 14.7721 183.226 15.0061 183.646 15.2101C184.078 15.4141 184.564 15.6001 185.104 15.7681C185.644 15.9241 186.19 16.0981 186.742 16.2901C187.306 16.4821 187.858 16.7041 188.398 16.9561C188.938 17.1961 189.418 17.5081 189.838 17.8921C190.27 18.2641 190.612 18.7141 190.864 19.2421C191.128 19.7701 191.26 20.4061 191.26 21.1501C191.26 22.0381 191.098 22.8601 190.774 23.6161C190.462 24.3601 189.994 25.0081 189.37 25.5601C188.746 26.1001 187.972 26.5261 187.048 26.8381C186.136 27.1381 185.08 27.2881 183.88 27.2881C183.244 27.2881 182.62 27.2281 182.008 27.1081C181.408 27.0001 180.826 26.8441 180.262 26.6401C179.71 26.4361 179.194 26.1961 178.714 25.9201C178.246 25.6441 177.832 25.3441 177.472 25.0201L178.498 23.3281C178.63 23.1241 178.786 22.9681 178.966 22.8601C179.146 22.7521 179.374 22.6981 179.65 22.6981C179.926 22.6981 180.184 22.7761 180.424 22.9321C180.676 23.0881 180.964 23.2561 181.288 23.4361C181.612 23.6161 181.99 23.7841 182.422 23.9401C182.866 24.0961 183.424 24.1741 184.096 24.1741C184.624 24.1741 185.074 24.1141 185.446 23.9941C185.83 23.8621 186.142 23.6941 186.382 23.4901C186.634 23.2861 186.814 23.0521 186.922 22.7881C187.042 22.5121 187.102 22.2301 187.102 21.9421C187.102 21.5101 186.97 21.1561 186.706 20.8801C186.454 20.6041 186.112 20.3641 185.68 20.1601C185.26 19.9561 184.774 19.7761 184.222 19.6201C183.682 19.4521 183.124 19.2721 182.548 19.0801C181.984 18.8881 181.426 18.6661 180.874 18.4141C180.334 18.1501 179.848 17.8201 179.416 17.4241C178.996 17.0281 178.654 16.5421 178.39 15.9661C178.138 15.3901 178.012 14.6941 178.012 13.8781C178.012 13.1221 178.162 12.4021 178.462 11.7181C178.762 11.0341 179.2 10.4401 179.776 9.93608C180.364 9.42008 181.09 9.01208 181.954 8.71208C182.83 8.40008 183.838 8.24408 184.978 8.24408C186.25 8.24408 187.408 8.45408 188.452 8.87408C189.496 9.29408 190.366 9.84608 191.062 10.5301L190.054 12.1321Z" fill="#404040"/>
<path d="M1.00004 34.0001H191V37.0001H1.00004V34.0001Z" fill="#404040"/>
</svg>
