<svg width="156" height="37" viewBox="0 0 156 37" fill="none" xmlns="http://www.w3.org/2000/svg">
<path d="M37.53 0.97208L29.448 27.0001H25.074L19.386 9.21608C19.23 8.78408 19.086 8.25608 18.954 7.63208C18.882 7.93208 18.81 8.21408 18.738 8.47808C18.666 8.74208 18.588 8.98808 18.504 9.21608L12.762 27.0001H8.37L0.306 0.97208H4.356C4.776 0.97208 5.124 1.07408 5.4 1.27808C5.688 1.47008 5.88 1.73408 5.976 2.07008L10.404 17.6401C10.5 18.0241 10.59 18.4441 10.674 18.9001C10.77 19.3441 10.866 19.8121 10.962 20.3041C11.058 19.8001 11.16 19.3261 11.268 18.8821C11.388 18.4381 11.514 18.0241 11.646 17.6401L16.758 2.07008C16.854 1.79408 17.04 1.54208 17.316 1.31408C17.604 1.08608 17.952 0.97208 18.36 0.97208H19.782C20.202 0.97208 20.544 1.07408 20.808 1.27808C21.072 1.48208 21.27 1.74608 21.402 2.07008L26.496 17.6401C26.748 18.3841 26.976 19.2421 27.18 20.2141C27.336 19.2661 27.51 18.4081 27.702 17.6401L32.13 2.07008C32.202 1.77008 32.382 1.51208 32.67 1.29608C32.97 1.08008 33.324 0.97208 33.732 0.97208H37.53Z" fill="#404040"/>
<path d="M45.5861 27.0001H40.7261V0.97208H45.5861V27.0001Z" fill="#404040"/>
<path d="M65.2736 5.70608C65.1296 5.95808 64.9736 6.14408 64.8056 6.26408C64.6496 6.37208 64.4516 6.42608 64.2116 6.42608C63.9596 6.42608 63.6836 6.33608 63.3836 6.15608C63.0956 5.96408 62.7476 5.75408 62.3396 5.52608C61.9316 5.29808 61.4516 5.09408 60.8996 4.91408C60.3596 4.72208 59.7176 4.62608 58.9736 4.62608C58.3016 4.62608 57.7136 4.71008 57.2096 4.87808C56.7056 5.03408 56.2796 5.25608 55.9316 5.54408C55.5956 5.83208 55.3436 6.18008 55.1756 6.58808C55.0076 6.98408 54.9236 7.42208 54.9236 7.90208C54.9236 8.51408 55.0916 9.02408 55.4276 9.43208C55.7756 9.84008 56.2316 10.1881 56.7956 10.4761C57.3596 10.7641 58.0016 11.0221 58.7216 11.2501C59.4416 11.4781 60.1796 11.7241 60.9356 11.9881C61.6916 12.2401 62.4296 12.5401 63.1496 12.8881C63.8696 13.2241 64.5116 13.6561 65.0756 14.1841C65.6396 14.7001 66.0896 15.3361 66.4256 16.0921C66.7736 16.8481 66.9476 17.7661 66.9476 18.8461C66.9476 20.0221 66.7436 21.1261 66.3356 22.1581C65.9396 23.1781 65.3516 24.0721 64.5716 24.8401C63.8036 25.5961 62.8616 26.1961 61.7456 26.6401C60.6296 27.0721 59.3516 27.2881 57.9116 27.2881C57.0836 27.2881 56.2676 27.2041 55.4636 27.0361C54.6596 26.8801 53.8856 26.6521 53.1416 26.3521C52.4096 26.0521 51.7196 25.6921 51.0716 25.2721C50.4236 24.8521 49.8476 24.3841 49.3436 23.8681L50.7656 21.5461C50.8856 21.3781 51.0416 21.2401 51.2336 21.1321C51.4256 21.0121 51.6296 20.9521 51.8456 20.9521C52.1456 20.9521 52.4696 21.0781 52.8176 21.3301C53.1656 21.5701 53.5796 21.8401 54.0596 22.1401C54.5396 22.4401 55.0976 22.7161 55.7336 22.9681C56.3816 23.2081 57.1556 23.3281 58.0556 23.3281C59.4356 23.3281 60.5036 23.0041 61.2596 22.3561C62.0156 21.6961 62.3936 20.7541 62.3936 19.5301C62.3936 18.8461 62.2196 18.2881 61.8716 17.8561C61.5356 17.4241 61.0856 17.0641 60.5216 16.7761C59.9576 16.4761 59.3156 16.2241 58.5956 16.0201C57.8756 15.8161 57.1436 15.5941 56.3996 15.3541C55.6556 15.1141 54.9236 14.8261 54.2036 14.4901C53.4836 14.1541 52.8416 13.7161 52.2776 13.1761C51.7136 12.6361 51.2576 11.9641 50.9096 11.1601C50.5736 10.3441 50.4056 9.34208 50.4056 8.15408C50.4056 7.20608 50.5916 6.28208 50.9636 5.38208C51.3476 4.48208 51.8996 3.68408 52.6196 2.98808C53.3396 2.29208 54.2276 1.73408 55.2836 1.31408C56.3396 0.894082 57.5516 0.684082 58.9196 0.684082C60.4556 0.684082 61.8716 0.924082 63.1676 1.40408C64.4636 1.88408 65.5676 2.55608 66.4796 3.42008L65.2736 5.70608Z" fill="#404040"/>
<path d="M94.2834 13.9861C94.2834 15.8941 93.9654 17.6461 93.3294 19.2421C92.6934 20.8381 91.7994 22.2121 90.6474 23.3641C89.4954 24.5161 88.1094 25.4101 86.4894 26.0461C84.8694 26.6821 83.0694 27.0001 81.0894 27.0001H71.1714V0.97208H81.0894C83.0694 0.97208 84.8694 1.29608 86.4894 1.94408C88.1094 2.58008 89.4954 3.47408 90.6474 4.62608C91.7994 5.76608 92.6934 7.13408 93.3294 8.73008C93.9654 10.3261 94.2834 12.0781 94.2834 13.9861ZM89.3154 13.9861C89.3154 12.5581 89.1234 11.2801 88.7394 10.1521C88.3674 9.01208 87.8214 8.05208 87.1014 7.27208C86.3934 6.48008 85.5294 5.87408 84.5094 5.45408C83.5014 5.03408 82.3614 4.82408 81.0894 4.82408H76.0314V23.1481H81.0894C82.3614 23.1481 83.5014 22.9381 84.5094 22.5181C85.5294 22.0981 86.3934 21.4981 87.1014 20.7181C87.8214 19.9261 88.3674 18.9661 88.7394 17.8381C89.1234 16.6981 89.3154 15.4141 89.3154 13.9861Z" fill="#404040"/>
<path d="M123.38 13.9861C123.38 15.8941 123.062 17.6641 122.426 19.2961C121.802 20.9161 120.914 22.3201 119.762 23.5081C118.61 24.6961 117.224 25.6261 115.604 26.2981C113.984 26.9581 112.184 27.2881 110.204 27.2881C108.236 27.2881 106.442 26.9581 104.822 26.2981C103.202 25.6261 101.81 24.6961 100.646 23.5081C99.4942 22.3201 98.6002 20.9161 97.9642 19.2961C97.3282 17.6641 97.0102 15.8941 97.0102 13.9861C97.0102 12.0781 97.3282 10.3141 97.9642 8.69408C98.6002 7.06208 99.4942 5.65208 100.646 4.46408C101.81 3.27608 103.202 2.35208 104.822 1.69208C106.442 1.02008 108.236 0.684082 110.204 0.684082C111.524 0.684082 112.766 0.840081 113.93 1.15208C115.094 1.45208 116.162 1.88408 117.134 2.44808C118.106 3.00008 118.976 3.67808 119.744 4.48208C120.524 5.27408 121.184 6.16208 121.724 7.14608C122.264 8.13008 122.672 9.19808 122.948 10.3501C123.236 11.5021 123.38 12.7141 123.38 13.9861ZM118.43 13.9861C118.43 12.5581 118.238 11.2801 117.854 10.1521C117.47 9.01208 116.924 8.04608 116.216 7.25408C115.508 6.46208 114.644 5.85608 113.624 5.43608C112.616 5.01608 111.476 4.80608 110.204 4.80608C108.932 4.80608 107.786 5.01608 106.766 5.43608C105.758 5.85608 104.894 6.46208 104.174 7.25408C103.466 8.04608 102.92 9.01208 102.536 10.1521C102.152 11.2801 101.96 12.5581 101.96 13.9861C101.96 15.4141 102.152 16.6981 102.536 17.8381C102.92 18.9661 103.466 19.9261 104.174 20.7181C104.894 21.4981 105.758 22.0981 106.766 22.5181C107.786 22.9381 108.932 23.1481 110.204 23.1481C111.476 23.1481 112.616 22.9381 113.624 22.5181C114.644 22.0981 115.508 21.4981 116.216 20.7181C116.924 19.9261 117.47 18.9661 117.854 17.8381C118.238 16.6981 118.43 15.4141 118.43 13.9861Z" fill="#404040"/>
<path d="M155.856 0.97208V27.0001H151.59V10.1881C151.59 9.51608 151.626 8.79008 151.698 8.01008L143.832 22.7881C143.46 23.4961 142.89 23.8501 142.122 23.8501H141.438C140.67 23.8501 140.1 23.4961 139.728 22.7881L131.772 7.95608C131.808 8.35208 131.838 8.74208 131.862 9.12608C131.886 9.51008 131.898 9.86408 131.898 10.1881V27.0001H127.632V0.97208H131.286C131.502 0.97208 131.688 0.978081 131.844 0.990081C132 1.00208 132.138 1.03208 132.258 1.08008C132.39 1.12808 132.504 1.20608 132.6 1.31408C132.708 1.42208 132.81 1.56608 132.906 1.74608L140.7 16.2001C140.904 16.5841 141.09 16.9801 141.258 17.3881C141.438 17.7961 141.612 18.2161 141.78 18.6481C141.948 18.2041 142.122 17.7781 142.302 17.3701C142.482 16.9501 142.674 16.5481 142.878 16.1641L150.564 1.74608C150.66 1.56608 150.762 1.42208 150.87 1.31408C150.978 1.20608 151.092 1.12808 151.212 1.08008C151.344 1.03208 151.488 1.00208 151.644 0.990081C151.8 0.978081 151.986 0.97208 152.202 0.97208H155.856Z" fill="#404040"/>
<path d="M0 34.0001H156V37.0001H0V34.0001Z" fill="#404040"/>
</svg>
